<?xml version="1.0" standalone="no"?>
<!DOCTYPE svg PUBLIC "-//W3C//DTD SVG 1.1//EN" "http://www.w3.org/Graphics/SVG/1.1/DTD/svg11.dtd" >
<svg xmlns="http://www.w3.org/2000/svg" xmlns:xlink="http://www.w3.org/1999/xlink" version="1.1">
<metadata></metadata>
<defs>
<font id="typemetwomedium" horiz-adv-x="575" >
<font-face units-per-em="2048" ascent="1638" descent="-410" />
<missing-glyph horiz-adv-x="614" />
<glyph horiz-adv-x="0" />
<glyph unicode="&#xd;" horiz-adv-x="681" />
<glyph unicode=" "  horiz-adv-x="614" />
<glyph unicode="&#x09;" horiz-adv-x="614" />
<glyph unicode="&#xa0;" horiz-adv-x="614" />
<glyph unicode="!" horiz-adv-x="493" d="M338 43q-29 51 39 113q10 10 25.5 10t25.5 -12q8 -7 10 -17q18 -12 31 -22q27 -27 25 -54q-4 -31 -33 -45q-18 -10 -41 -10q-59 -2 -82 37zM381 350q-10 174 4 518q14 348 6 512q0 16 10.5 27.5t25.5 11.5t26.5 -10.5t11.5 -24.5q8 -168 -6 -518q-14 -342 -4 -512 q0 -14 -10.5 -26.5t-24.5 -12.5t-26.5 10.5t-12.5 24.5z" />
<glyph unicode="&#x22;" horiz-adv-x="509" d="M129 1348q-2 16 7 28.5t24.5 14.5t28 -7.5t14.5 -23.5q8 -57 12 -130t5 -117t0 -138t-1 -117q0 -14 -11 -25.5t-25.5 -11.5t-26 11.5t-11.5 25.5q0 25 1 118t0 135t-5 112.5t-12 124.5zM410 1331q-4 14 1 28.5t19 19.5t28.5 0t20.5 -19q37 -90 27 -254q0 -12 -6 -85 t-5 -80t3 -75q2 -16 -8.5 -27.5t-25.5 -13.5t-26.5 8.5t-13.5 24.5q-2 76 -3 83t5 86t6 83q10 147 -22 221z" />
<glyph unicode="#" horiz-adv-x="1142" d="M35 487.5q0 14.5 11 25.5t26 11q117 0 264 4q23 195 45 324v2q-145 -2 -266 2q-14 0 -24.5 11.5t-10.5 26.5t11.5 25.5t27.5 10.5q125 -4 276 -2q4 16 15.5 69.5t15.5 75.5l12 66q8 47 11.5 75.5t6.5 66.5t3 71q0 14 11 25.5t25.5 11.5t25.5 -11.5t11 -25.5 q0 -125 -61 -422q57 2 137 6q20 0 95 3t114 5q6 33 53 211q31 127 35 205q0 14 11.5 24.5t26.5 10.5t25.5 -11.5t10.5 -27.5q-4 -84 -37 -219q-45 -168 -49 -191q119 4 211 4q14 0 25.5 -11t11.5 -25.5t-11.5 -25.5t-25.5 -11q-98 0 -223 -5q-14 -96 -37 -323q127 4 231 4 q14 0 25.5 -11.5t11.5 -25.5t-11 -25.5t-26 -11.5q-106 0 -239 -4q-6 -63 -37 -213q-29 -147 -33 -231q0 -14 -12.5 -24.5t-26.5 -10.5t-24.5 11t-10.5 28q4 88 35 241q29 145 35 197q-63 -2 -183 -7t-178 -7l-2 -29q-33 -285 -53 -414q-2 -14 -15.5 -23t-27.5 -7t-23.5 15 t-7.5 28q23 127 54 409l2 17q-143 -4 -256 -4q-14 0 -25.5 11t-11.5 25.5zM410 532q53 2 173.5 7.5t186.5 7.5q23 231 35 323q-35 -2 -101.5 -5t-91.5 -3q-90 -4 -155 -6l-2 -16q-23 -125 -45 -308z" />
<glyph unicode="$" horiz-adv-x="1101" d="M159 265q-9 48 3 91q12 49 51 74q43 25 104 8q14 -2 21.5 -15t4.5 -28.5t-16.5 -22.5t-29.5 -3q-29 6 -45 -2q-14 -8 -21 -31q-14 -57 25 -111q53 -74 158 -119q102 -47 221 -51h4q0 29 -3 197t-7 256q-2 63 -8 188l-17 4q-205 55 -274 111q-125 96 -74 272 q31 113 127 185.5t221 95.5h8q4 109 13 207q2 14 13 24.5t26.5 8.5t25.5 -13.5t8 -27.5q-8 -90 -12 -191q102 2 193.5 -35t150.5 -110q47 -59 57.5 -127t-14.5 -109q-33 -57 -90 -45q-51 8 -92 80q-6 14 -2 28.5t17.5 21.5t27.5 3t22 -16q23 -41 41 -45q4 -2 11 10 q14 12 7 60.5t-42 93.5q-47 59 -124 88.5t-165 27.5q-6 -195 8 -544q154 -43 234 -92q158 -94 172 -271q12 -152 -31 -219q-51 -86 -145.5 -133t-206.5 -57q4 -109 8 -199q0 -14 -10.5 -26.5t-24.5 -12.5t-26.5 10t-12.5 25q-4 90 -8 201q-4 2 -8 2q-133 4 -253 57t-185 141 q-27 37 -36 85zM326 1063q-35 -129 49 -193q59 -47 243 -96q-12 324 -10 516q-102 -20 -180 -79.5t-102 -147.5zM696 676q4 -102 6 -164q2 -90 6.5 -257t4.5 -200q209 18 293 154q29 49 18 178q-10 135 -135 211q-68 41 -193 78z" />
<glyph unicode="%" horiz-adv-x="1517" d="M94 999q6 106 39 200.5t90 139.5q43 37 109.5 47.5t124.5 2.5q20 -4 41.5 -13.5t36 -17.5t35 -25.5t28.5 -26t27.5 -30t23.5 -25.5q45 -45 84 -66.5t92 -17.5q137 10 238 123l8 15l25 38l22 37l8 13l4 4q2 2 3 4q2 2 4 2q2 4 6 4q8 6 18 6q18 0 31 -14q14 -14 8 -35 q-2 -10 -10 -23q-6 -8 -10 -12v-2q-2 -4 -64 -129q-90 -186 -178 -330q-41 -68 -86 -151l-74 -144l-82 -159l-75 -148q-2 -2 -70 -160q-45 -102 -92 -159q-10 -10 -25.5 -12.5t-27 8t-13.5 26t8 27.5q39 45 82 141q70 158 72 162l76 147l82 164l75 144l89 151 q66 111 135 246q-84 -49 -183 -57q-72 -6 -133 26q23 -137 -22 -278q-35 -111 -109 -183q-76 -70 -184 -65q-131 6 -193 57q-55 49 -78.5 144.5t-15.5 203.5zM168 995q-6 -98 12.5 -176t57.5 -110q41 -37 147 -41q76 -4 132 49t87 147q27 92 25 185.5t-35 152.5 q-4 6 -21.5 24.5t-22.5 22.5t-19.5 18.5t-21.5 18.5t-18.5 12.5t-22.5 11.5t-24 5q-45 8 -95 0t-81 -33q-39 -33 -66.5 -111.5t-33.5 -175.5zM932.5 430.5q13.5 116.5 58.5 210.5q2 6 6 16l7 21q12 35 32 51q31 31 101 45q30 6 61 8q8 4 16 4q127 0 211 -122 q72 -104 88 -258q14 -150 -34 -267q-57 -137 -181 -159q-143 -25 -239 43q-82 59 -113 180q-27 111 -13.5 227.5zM1006.5 420.5q-11.5 -105.5 11.5 -199.5q25 -94 86 -139q68 -49 182 -29q82 14 125 115q41 98 29 231q-14 133 -74 222q-53 78 -127 90h-2q-41 0 -84 -9 q-49 -12 -68 -26q-6 -6 -12 -23q0 -4 -1 -7t-3 -7t-2 -6q-4 -14 -10 -25q-39 -82 -50.5 -187.5z" />
<glyph unicode="&#x26;" horiz-adv-x="1615" d="M133 270q-76 158 6 287q59 90 223 191q39 25 99 55q-80 113 -113 246q-47 186 41 292q25 27 68 43q10 4 32 11q18 6 29 10q98 37 185.5 26.5t144.5 -65.5t64.5 -142t-40.5 -190q-45 -96 -200 -194q-39 -25 -101 -60q25 -31 92.5 -125t111.5 -150t89 -108l29 64l74 172 q45 102 75 164q96 180 213 215q90 29 173 -6t135 -109q49 -74 51 -154.5t-60 -154.5q-53 -55 -151 -53q-104 2 -152 69q-20 33 -16 84q2 14 6 37t4 29q2 14 14.5 23t28 7t24.5 -14.5t7 -28.5q-2 -6 -6 -30q-4 -18 -4 -29q-2 -27 4 -37q25 -37 90 -37q68 0 98 33 q39 43 39 100.5t-39 112.5q-39 57 -99.5 83t-125.5 5q-86 -27 -168 -180q-31 -57 -74 -158l-73 -174l-41 -90q215 -215 505 -258q14 -2 23.5 -14.5t7.5 -27.5t-14 -24.5t-29 -7.5q-303 45 -530 264q-80 -137 -182.5 -205.5t-247.5 -37.5q-76 16 -156 60t-129 101 q-16 20 -25 50zM199 303q6 -12 14 -43q4 -12 12 -20q39 -47 108.5 -86t135.5 -52q117 -27 201.5 34t158.5 192q-53 55 -102 117.5t-124 166t-97 131.5l-107 -59q-147 -90 -198 -166q-59 -96 -2 -215zM420 1067q30 -125 106 -227l107 61q137 86 174 166q37 90 32 150.5 t-43 97.5t-100.5 44t-152.5 -24q-10 -4 -30.5 -10t-29.5 -8q-27 -10 -37 -25q-66 -76 -26 -225z" />
<glyph unicode="'" horiz-adv-x="262" d="M156 1329q-4 14 2 28.5t20.5 18.5t28.5 -2t18 -20q20 -57 28.5 -131t7.5 -129.5t-4 -138.5t-3 -119q0 -14 -11.5 -25.5t-25.5 -11.5t-25.5 11t-11.5 26q0 43 3 124.5t4 133t-6 118t-25 117.5z" />
<glyph unicode="(" horiz-adv-x="909" d="M154.5 660.5q23.5 175.5 101.5 324t222.5 268t338.5 181.5q14 4 27.5 -2.5t17.5 -21.5t-2 -28.5t-22 -17.5q-143 -45 -260 -127l-39 -43q-33 -37 -45 -66q-47 -115 -76 -301q-27 -188 -23 -387q9 -429 146 -622q29 -27 59 -51q23 -18 48.5 -34t58 -30t53.5 -22l63 -25 q43 -16 62 -23q12 -6 18 -20t1 -27.5t-19.5 -19.5t-28.5 0l-57 20q-43 16 -65.5 25.5t-58.5 26t-64.5 34t-55.5 37.5q-152 119 -251 280t-136 328.5t-13.5 343zM242 325.5q49 -219.5 196 -399.5q-78 203 -84 514q-4 193 23 377q25 184 72 307q-150 -158 -203 -368.5t-4 -430 z" />
<glyph unicode=")" horiz-adv-x="743" d="M16 1399.5q0 15.5 11.5 26t27.5 10.5q213 -8 426 -291q82 -111 144.5 -238t87.5 -229q41 -158 25.5 -344.5t-89.5 -333.5q-57 -119 -174 -222.5t-248 -168.5q-10 -6 -57 -25q-29 -12 -47 -24q-12 -8 -27.5 -5t-24 15t-5 27.5t15.5 23.5q23 16 59 31q45 18 54 22 q135 68 241 168q2 12 9.5 47t13.5 58q39 137 50 277.5t-7.5 286.5t-46 267t-74.5 285q-27 98 -55 149q-143 143 -275 150q-14 0 -24.5 11t-10.5 26.5zM408 1118q6 -16 14 -43q47 -166 73.5 -287.5t46 -271t8.5 -294t-50 -288.5l-11 -36q59 66 95 135q66 135 81 308t-22 321 q-25 94 -83 213.5t-138 226.5z" />
<glyph unicode="*" horiz-adv-x="974" d="M291 810q4 15 16 24q41 23 81 51t96.5 74.5t78.5 62.5q-4 2 -108 74q-84 57 -140 78q-14 6 -20 19t-1 27.5t18.5 20.5t27.5 2q66 -25 156 -86q98 -70 112 -78q2 199 -18 305q-2 14 6 26.5t23.5 16t27.5 -5t17 -24.5q20 -106 18 -289q188 129 209 145q12 8 27.5 6 t24.5 -14t7 -27.5t-14 -25.5q-45 -33 -132 -91.5t-104 -70.5l11 -4q53 -25 82 -43q25 -14 84 -59q47 -35 75 -50q12 -6 17.5 -20t-0.5 -27.5t-20.5 -18.5t-28.5 1q-35 16 -89 57l-75 56l-76 39q-4 -199 6 -297q2 -16 -8 -27.5t-25.5 -13.5t-27 8t-13.5 24q-10 102 -6 308 l-61 -50l-68 -53q-27 -20 -63.5 -46t-69.5 -46q-12 -6 -27.5 -2t-22.5 16.5t-3 27.5z" />
<glyph unicode="+" horiz-adv-x="1011" d="M10 683q0 15 11.5 25.5t27.5 10.5q205 -10 424 -10q2 61 -6 168q-12 160 -12 215q0 14 11 25t25.5 11t25.5 -11t11 -25q0 -53 13 -211q8 -104 6 -170q205 2 424 14q14 0 26.5 -10t12.5 -24.5t-10.5 -27t-24.5 -12.5q-223 -12 -432 -14q-16 -246 -17 -358q0 -14 -11 -25.5 t-25.5 -11.5t-25.5 11t-11 26q0 115 16 356q-219 0 -424 10q-14 0 -24.5 11.5t-10.5 26.5z" />
<glyph unicode="," horiz-adv-x="407" d="M150.5 -307.5q5.5 14.5 19.5 20.5q45 18 84 69.5t61 121.5q33 104 11 184q-16 -25 -41 -37q-35 -18 -68 -8q-37 14 -51 57q-14 47 3 82t56 49q33 12 72 1t63 -44q41 -59 46.5 -146t-21.5 -159q-25 -82 -74 -147.5t-112 -91.5q-14 -4 -28.5 1t-20 19t0 28.5z" />
<glyph unicode="-" d="M51 552q-2 15 7.5 27.5t25.5 14.5q158 20 453 20q14 0 25 -11t11 -25.5t-11 -25.5t-25 -11q-295 0 -445 -21q-14 -2 -26.5 7.5t-14.5 24.5z" />
<glyph unicode="." horiz-adv-x="344" d="M190 76q3 17 11 37q-2 8 -2 18q2 14 14 23.5t29 7.5q90 -14 100 -70q8 -47 -47 -78q-20 -12 -41 -14q-31 -2 -49 18q-20 23 -15 58z" />
<glyph unicode="/" horiz-adv-x="735" d="M-57 -373q18 104 118 314q20 47 74 153l74 148q291 649 453 1161q4 16 17 22.5t28.5 2t21.5 -17.5t2 -28q-164 -518 -457 -1169q-18 -45 -71 -152l-76 -151q-96 -201 -111 -295q-2 -14 -15 -23.5t-27.5 -7.5t-23.5 15.5t-7 27.5z" />
<glyph unicode="0" horiz-adv-x="1157" d="M143.5 563.5q-2.5 83.5 2 137t12.5 149.5q12 117 38.5 206t92.5 161q104 116 280 143q8 16 27 18q129 14 235.5 -37t174 -146t105.5 -215t44 -249t-22.5 -253t-88 -229.5t-164 -173t-239.5 -73.5q-143 -8 -242 59q-86 59 -157 187q-4 8 -25.5 42t-36 62.5t-20.5 57.5 q-14 70 -16.5 153.5zM217 566q2 -77 16 -140q4 -25 14.5 -44.5t28.5 -49.5l31 -47q61 -113 133 -162q13 -9 27 -17q-96 145 -109 408q-14 276 62 498q41 129 76 190q31 51 63 82q-135 -27 -217 -117q-53 -61 -76.5 -138t-34.5 -187q-8 -92 -12 -145.5t-2 -130.5zM399 514 q12 -299 140 -432q45 -8 98 -6q150 8 255 104t150 238.5t39 310.5q-10 227 -113.5 391t-275.5 185q-6 -6 -12 -9q-6 -10 -18 -10q-70 0 -130 -104q-33 -57 -75 -183q-72 -217 -58 -485z" />
<glyph unicode="1" horiz-adv-x="1054" d="M227 49q0 14 11.5 25.5t25.5 11.5q47 0 127 6q86 8 121 10q-16 127 -19.5 267.5t1 341t4.5 266.5q0 27 3 81t3 77q2 86 -12 135q-6 0 -58 -4q-102 -8 -149 -9q-14 0 -25.5 11.5t-11.5 26t11 25.5t26 11q51 0 143 6q102 8 147 11q2 0 33 10q47 16 76 -6q8 -6 12 -17 q2 -4 2 -8q2 -6 2 -14q2 -12 2 -33v-94q0 -29 -1 -65t-2 -59.5t-1 -29.5q0 -102 -7 -295.5t-6 -346t17 -290.5v-2q47 -2 72 -2q147 -6 234 15q14 2 27.5 -6.5t16.5 -22.5t-5.5 -27.5t-22.5 -17.5q-96 -20 -254 -14q-221 6 -242 6q-37 -2 -129 -9q-86 -8 -135 -8 q-14 0 -25.5 11.5t-11.5 25.5zM533.5 367.5q3.5 -138.5 19.5 -265.5h76q-16 137 -16.5 293t6 348.5t6.5 288.5q0 6 1 29.5t2 60.5t1 66v90v10q-35 -14 -53.5 -14t-40.5 -2q12 -53 10 -137q0 -25 -3 -78t-3 -80q0 -68 -4.5 -269.5t-1 -340z" />
<glyph unicode="2" horiz-adv-x="1157" d="M151.5 1070q4.5 52 49.5 108q78 92 198.5 143t243.5 47q133 -4 236.5 -74.5t146.5 -208.5q51 -158 -25 -270q-57 -88 -200 -158q-35 -16 -76 -34l-94 -37l-80 -31q-139 -57 -193 -111q-82 -80 -106 -186q33 31 76 43q127 39 254 -41l96 -70q55 -43 92 -61q55 -27 121 -37 q49 55 56 130t-36 138q-8 10 -2 21q2 18 15 27q80 59 151 6q55 -41 74 -129q8 -51 5 -105.5t-39 -101.5t-99 -60q-66 -12 -141.5 1.5t-137.5 43.5q-43 23 -104 68q-72 55 -92 68q-96 61 -193 32q-31 -10 -51.5 -32.5t-24.5 -51.5q-2 -14 -14 -22q23 -53 80 -84 q14 -8 18 -22.5t-3 -28t-21.5 -17.5t-26.5 2q-80 41 -110.5 111t-22.5 150q10 72 46 141t87 121q66 63 217 125l170 67q66 104 64 297q-2 98 -25.5 176t-66.5 115q-10 10 -23 16q-109 4 -213 -41t-170 -125q-31 -35 -33 -63q-2 -20 13 -35q39 -41 127 -41q14 0 25 -11 t11 -25.5t-11 -26t-25 -11.5q-121 0 -181 64q-37 39 -32.5 91zM715 1284q80 -96 82 -297q2 -158 -45 -270l18 8q125 59 170 129q55 84 16 211q-57 180 -241 219zM940 86q33 0 64 6q49 8 69.5 59.5t3.5 116.5q-14 61 -47 86q-27 20 -61 -4l-2 -2q29 -66 20.5 -135.5 t-47.5 -126.5z" />
<glyph unicode="3" horiz-adv-x="1124" d="M145 397q10 49 41 88t72 52q49 16 90 -10.5t58 -90.5q4 -16 -3.5 -29.5t-22.5 -16.5t-28.5 4t-15.5 22q-10 37 -29 49q-10 8 -24 2q-20 -6 -40 -29.5t-24 -52.5q-23 -115 31.5 -192.5t163.5 -120.5q98 -37 215 -37q92 70 149 205q16 39 37 129t27 174q10 104 -6 162 q-16 59 -60 59q-10 0 -16 8q-88 0 -146 -37q-2 0 -4 -4q-4 -4 -8 -10q-23 -25 -49 -25q-20 0 -33 15q-12 18 -4 39q2 10 14 22l13 12l8 9q78 74 117 122q6 8 215 242q70 80 102 123l10 12q-25 -6 -37 -6h-118h-97q-4 -4 -10 -4q-70 -6 -132 -32.5t-107 -60.5t-92.5 -92.5 t-77 -102.5t-72.5 -117q-12 -18 -29 -9l-2 2h-2q-16 2 -25.5 14.5t-7.5 26.5q2 6 7 213q2 84 6 129q2 31 4 47q2 12 4 19q4 14 12 22q18 20 49 17q8 0 13 -2h4q152 4 673 4q4 0 10.5 1t15.5 4t20 5q57 10 79 -27q12 -18 4 -40q-2 -8 -10 -21q-10 -18 -33 -47 q-29 -37 -108 -127q-205 -231 -211 -238l-23 -28q113 16 199 -27q115 -55 171 -166.5t50 -240.5q-6 -127 -69 -236q-63 -111 -176 -162q-102 -47 -237.5 -49t-252.5 43q-129 49 -198.5 149.5t-43.5 243.5zM264 975q72 115 145.5 192.5t170.5 118.5q-166 0 -295 -4h-11 q-2 -12 -2 -33q-4 -43 -6 -127q0 -25 -1 -74.5t-1 -72.5zM694 39q86 8 150 37q92 43 146 134t58.5 200.5t-40.5 201.5q-47 90 -140 138l-8 4q8 -16 14 -37q18 -66 9 -176q-6 -88 -27.5 -181.5t-40.5 -136.5q-45 -111 -121 -184z" />
<glyph unicode="4" horiz-adv-x="1208" d="M57 494q-16 27 2 57q4 4 11 12q4 4 4 6q29 45 92 101q88 78 94 84q23 20 44.5 44.5t47.5 61.5q27 33 41 49q45 53 164 205t168 207q0 2 6 12q18 35 51 29q27 -6 41 -35q6 -14 11 -41q6 -35 8 -98v-70q0 -27 -1 -58.5t-1 -37.5v-496q197 2 319 35q14 4 27.5 -3t17.5 -21.5 t-3 -27.5t-21 -17q-131 -37 -340 -39v-371q186 10 284 20q16 2 27.5 -8t13.5 -25.5t-8 -26.5t-24 -13q-96 -10 -345 -23q-217 -10 -335 -29q-16 -2 -28.5 7.5t-14.5 25t7 27.5t23 14q125 17 326 29v373q-72 2 -218.5 8t-211.5 6q-39 0 -111.5 4t-97.5 4h-2q-2 -2 -12 -4 q-39 -6 -56 23zM150 549q8 0 78.5 -4t107.5 -4q45 0 104 -2q0 6 4 12q41 61 97 176q78 160 92 186q16 29 65.5 106t69.5 120v47q-2 41 -4 67q-57 -66 -150 -184l-163 -209l-138 -160q-8 -8 -98 -86q-43 -37 -65 -65zM485 537q258 -10 281 -11v496v29q-12 -23 -47 -76 t-49 -82q-25 -43 -92 -182q-56 -115 -93 -174z" />
<glyph unicode="5" horiz-adv-x="1114" d="M163 248q-5 53 9 96q20 53 66 70q51 20 112 -15q12 -8 16.5 -22.5t-3 -27.5t-21.5 -17t-29 2q-31 18 -49 12q-14 -6 -22 -29q-10 -27 -6 -62.5t18 -59.5q12 -20 40 -40t46 -28l61 -29q145 -63 299 -45l25 29q23 27 31 45q92 168 94 385q0 203 -96 313h-17 q-141 0 -198 -20q-41 -14 -75 -39t-77 -67t-72 -64q-12 -10 -24 -17q-29 -14 -53 3q-10 6 -15 18l-4 8q0 8 -2 17v38q0 41 4 107q6 135 12 178q2 12 6.5 70.5t8.5 95.5q6 63 14 100q6 23 12 39q10 25 27 35q8 4 18 6q4 2 11 2h26q25 2 68 0q18 0 46 -2t44 -2h23q8 0 100 5 t154 7q94 2 149 -4q35 -4 57 -10q35 -12 45 -37q16 -37 21 -143q0 -14 1 -42t1 -34q2 -41 4 -59q2 -14 -7 -26.5t-24.5 -14.5t-28 7.5t-14.5 25.5q-2 20 -4 65q0 6 -1 34t-1 42q-2 84 -10 110q-2 0 -4 3q-14 4 -43 6q-51 6 -139 4q-63 -2 -154.5 -7.5t-101.5 -5.5h-31 q-6 -55 -26.5 -195t-28.5 -218q31 18 63 30q70 25 223 25q215 0 303 -127q72 -102 72 -319q0 -174 -47 -256q-70 -117 -192.5 -172.5t-253 -50t-246.5 58.5q-2 0 -20.5 8t-23.5 10t-23.5 11.5t-26.5 15.5l-25 14q-14 10 -23.5 18.5t-20.5 20.5t-17 23q-25 41 -30 94z M291 711q2 2 45 42t70 60q8 86 30.5 242.5t28.5 204.5q-27 2 -43 2q-41 2 -66 0h-14q-4 -8 -8 -25q-6 -33 -12 -90q-4 -39 -8.5 -98.5t-6.5 -69.5q-6 -43 -12 -174q-4 -57 -4 -94zM762 63q162 41 237 170q39 66 39 220q0 195 -57 276q-53 76 -172 92q82 -119 82 -309 q-2 -227 -98 -406q-10 -18 -31 -43z" />
<glyph unicode="6" horiz-adv-x="1142" d="M119 616q4 131 37 256q74 281 258 414q211 152 485 43q4 -2 11.5 -5t15.5 -6t12 -5q29 -10 47 -19q59 -29 86 -71q27 -53 21.5 -113.5t-35.5 -101.5q-39 -53 -94.5 -41t-96.5 92q-6 12 -2 26.5t17.5 21.5t28 3t22.5 -18q25 -47 45 -54q10 -2 22 15q16 25 20.5 62.5 t-13.5 70.5q-12 23 -52 41q-16 8 -41 18l-43 15q-123 49 -233 36q-100 -59 -164 -223q-37 -96 -55 -217q137 70 293 57q162 -12 282.5 -114.5t143.5 -278.5q25 -182 -45 -315q-51 -98 -156 -154.5t-229 -66.5q-121 -8 -237 24.5t-189 106.5q-88 88 -128 228t-34 273z M193 616l4 7q57 128 176 206q18 145 63 258q43 117 109 187q-45 -18 -88 -49q-162 -117 -232 -373q-31 -113 -32 -236zM223 365q37 -123 111 -197q61 -61 164 -92q-72 102 -108 269t-30 349q2 17 2 35q-63 -57 -100 -135q-8 -23 -15 -51.5t-9 -49t-5.5 -58.5t-5.5 -58 q0 -6 -4 -12zM401 692q-6 -199 37 -372t125 -257q68 -12 137 -6q111 10 198 56.5t128 124.5q57 113 37 274q-18 147 -118.5 232t-239.5 96q-166 14 -297 -76q-4 -37 -7 -72z" />
<glyph unicode="7" horiz-adv-x="1136" d="M174 1087q-2 43 6 82q-2 119 -6 191q0 14 10.5 26.5t24.5 12.5t26.5 -10.5t12.5 -24.5q2 -27 2 -57q10 10 20 18q111 90 258 18q35 -16 64 -36.5t64.5 -53t39.5 -36.5q78 -68 187 -76q37 -4 76.5 12t68.5 45q20 20 29 41q0 31 -6 61q-4 8 -9 15q-20 27 2 49q8 12 22.5 16 t28 -2t17.5 -22q6 -14 8 -31q23 -47 10 -98q-8 -131 -120 -275q-41 -51 -144 -157q-92 -92 -127 -144q-143 -195 -98 -620q2 -16 -8 -27.5t-25.5 -13.5t-27 8t-13.5 25q-47 455 111 673q41 53 135 152q100 102 139 151q41 53 66 101q-70 -39 -139 -33q-96 8 -164 45 q-90 27 -191.5 12.5t-173.5 -65.5q-18 -12 -30.5 -28.5t-31 -47.5t-26.5 -43l-2 -2q4 -80 10 -145q2 -16 -8 -27.5t-25.5 -13.5t-26.5 8t-13 24q-10 109 -15 283q-8 8 -8 20zM254 1163q0 -6 1 -38.5t1 -49.5q0 -37 2 -65q35 57 68 82q129 91 313 75q-10 8 -32.5 30t-35 32 t-33 24.5t-42.5 24.5q-104 51 -181 -10q-45 -39 -61 -105z" />
<glyph unicode="8" horiz-adv-x="1181" d="M109 350q0 12 2 25.5t2 17.5q6 135 90 247t209 153q-102 57 -148 145q-45 90 -28 184q23 135 149 213q129 78 315 49q184 -31 264 -140t46 -240q-31 -115 -131 -191q156 -41 233.5 -167t67.5 -277q-10 -127 -83 -236.5t-196 -161.5q-8 -16 -18 -30q-10 -16 -29 -4 q-8 4 -8 14q-78 -20 -168 -17q-117 6 -225.5 43t-203.5 119t-134 197q-4 12 -5 28.5t-1 28.5zM182 336q0 -4 2 -19q47 -141 188.5 -221t309.5 -88q121 -6 215 43q41 90 56.5 188.5t-5 197t-82.5 167.5q-8 10 -17 19.5t-22.5 19.5t-21.5 15.5t-26.5 15.5t-24.5 14t-29 17 l-27 12l-32 18q-10 -2 -21 -2q-12 -10 -29 -8q-25 4 -47 10h-10q-6 0 -12 4q-141 4 -247.5 -99t-113.5 -251q0 -14 -2 -31.5t-2 -21.5zM307 1110q-14 -90 48.5 -175t205.5 -124h4q-16 20 -28 45q-66 129 -39 285q16 109 77 176q-113 -8 -183 -67.5t-85 -139.5zM537 1133 q-23 -141 36 -261q18 -35 58 -65q39 0 76 8q12 16 30 16h21q70 27 117 78.5t63 112.5q27 96 -33 180q-61 84 -217 109q-26 4 -51 6q-80 -59 -100 -184zM731 745q125 -63 168 -112q59 -72 84 -168t15.5 -189.5t-42.5 -187.5q135 106 150 287q10 150 -76 261.5t-260 121.5 q-18 -8 -39 -13z" />
<glyph unicode="9" horiz-adv-x="1130" d="M147 285q12 49 54.5 80.5t85.5 33.5q59 2 82 -45q20 -43 -9 -112q-6 -14 -20 -19.5t-28.5 -0.5t-19.5 19.5t-1 28.5q16 39 10 52l-12 4q-20 0 -42 -17.5t-26 -40.5q-12 -51 27 -95t119 -77q76 -29 158.5 -37t123.5 9q18 6 37 14q156 188 174 471q-147 -80 -301 -76 q-139 4 -242.5 87t-136.5 243q-39 205 56.5 359.5t263.5 209.5q76 29 160.5 25t160.5 -33t142.5 -97.5t107.5 -164.5q31 -78 45 -180q12 -16 6 -35v-2q18 -176 -12 -361q-29 -184 -104 -299q-100 -154 -332 -231q-61 -20 -154.5 -12t-179.5 43q-94 37 -152.5 101.5 t-40.5 154.5zM254 819q25 -131 106 -196q84 -68 201 -72q156 -4 301 88q-4 207 -76 416q-39 111 -75 180q-27 53 -54 84l-8 8q-63 0 -127 -20q-141 -47 -223 -179q-80 -131 -45 -309zM707 1323q20 -29 41 -70q35 -70 75 -186q70 -202 78 -399q45 33 78 73q12 14 23.5 35 t15.5 33l14 47q12 33 15 41q-14 104 -46 180q-43 111 -121.5 172.5t-172.5 73.5zM762 115q123 63 182 155q104 162 111 451q-8 -16 -19 -29q-57 -65 -135 -114q-10 -268 -139 -463z" />
<glyph unicode=":" horiz-adv-x="348" d="M162 805q4 8 8 14q2 12 8 23q16 25 47 35q18 10 52 5t53 -30q39 -55 -4 -107q-33 -43 -86 -38q-49 4 -72 28q-27 31 -6 70zM182 82q-14 37 4 65q10 27 45 35q14 2 29 2l10 4q25 8 39 -12q16 -8 25 -20q23 -31 4 -70q2 -4 2 -10q0 -16 -10.5 -27.5t-24.5 -11.5 q-45 -2 -51 -2q-53 6 -72 47z" />
<glyph unicode=";" horiz-adv-x="393" d="M141 172q4 33 25.5 60.5t58.5 31.5q90 12 135 -80q35 -72 31 -180q-4 -106 -44 -202.5t-114 -135.5q-12 -6 -26 -2t-21.5 17.5t-3 28t18.5 22.5q47 25 79.5 103.5t36.5 170.5q2 66 -10 115q-6 -10 -12 -19q-39 -55 -92 -39q-39 10 -53.5 43t-8.5 66zM174 823q16 23 47 35 l6 2q25 16 47 17q29 0 45 -23q20 -31 7 -76q-7 -25 -21 -41q-12 -33 -39 -43q-39 -12 -76 23q-51 51 -16 106z" />
<glyph unicode="&#x3c;" horiz-adv-x="966" d="M51.5 654.5q-6.5 17.5 3.5 33.5q4 6 11 12q8 8 22 21l64 39q63 37 106 57l653 324q14 6 28.5 2t21 -18.5t2 -29t-18.5 -20.5l-653 -323q-41 -20 -103 -56q-23 -14 -36 -22q14 -6 36 -15q27 -8 65 -18t44 -12q111 -37 342 -170q33 -20 141 -72q94 -45 146 -78 q12 -8 15 -22.5t-5 -27.5t-22.5 -16t-28.5 5q-45 27 -137 71q-102 49 -146 74q-236 135 -330 166q-4 2 -41.5 12.5t-62.5 18.5q-41 12 -66 22q-16 6 -26 13q-18 12 -24.5 29.5z" />
<glyph unicode="=" horiz-adv-x="966" d="M10 537.5q-2 15.5 7.5 28t25.5 14.5q102 12 230 18t192.5 7t242 0t203.5 -1q14 0 25.5 -11t11.5 -25.5t-11 -26t-26 -11.5q-51 0 -167.5 1t-182 0t-163 -2t-181.5 -7t-166 -16q-14 -2 -26.5 7t-14.5 24.5zM10 853q-2 15 7.5 27.5t23.5 14.5q131 18 268 23.5t352.5 1 t266.5 -4.5q14 0 25.5 -11t11.5 -25.5t-11.5 -25.5t-25.5 -11q-57 0 -268 4t-345.5 0t-261.5 -25q-16 -2 -28.5 7.5t-14.5 24.5z" />
<glyph unicode="&#x3e;" horiz-adv-x="944" d="M42 1120.5q5 14.5 18.5 20.5t27.5 2q51 -18 143.5 -69.5t104.5 -57.5q29 -14 123 -58.5t156.5 -76t119.5 -64.5q4 -4 19 -10l41 -21l41 -22l61 -33q12 -8 21 -12q4 -2 7 -4t5 -4q2 -4 4 -6q8 -10 8 -23q0 -20 -18 -37q-8 -6 -23 -14q-18 -12 -55 -31l-58 -27 q-29 -12 -32 -16q-117 -66 -338 -175.5t-297 -150.5q-12 -6 -26.5 -2t-21.5 17.5t-3 28t18 22.5q76 41 295 150.5t336 175.5q8 4 39 18l57 27l23 10l-37 20l-43 23l-41 20l-19 11q-57 35 -120 65l-152 74q-92 43 -123 59q-27 12 -108.5 59.5t-131.5 63.5q-14 6 -20 19.5 t-1 28z" />
<glyph unicode="?" horiz-adv-x="1095" d="M129 1008q12 129 127 233q86 82 236 115q150 35 288 10q156 -27 240 -117q98 -104 70 -268q-10 -55 -35 -102.5t-67 -86t-71.5 -61t-82.5 -57.5q-12 -10 -21 -15q-106 -70 -161.5 -134t-65.5 -167q-2 -14 -13.5 -24t-27 -8t-25.5 13t-8 28q6 68 30.5 122t66.5 98t76 70.5 t87 63.5l72 49q18 12 57 43t55.5 52.5t35 56t24.5 71.5q23 127 -49 207q-68 72 -199 94q-125 20 -258 -8q-133 -31 -205 -98q-92 -86 -102 -189q-6 -68 37 -100q37 -31 94 -27q47 2 59 25q10 23 -35 66q-12 10 -12 25.5t10.5 26.5t26 11t25.5 -10q86 -80 51 -152 q-31 -59 -121 -65q-84 -6 -145 41q-74 59 -64 168zM477 70q-8 20 0 45q16 43 64 49q35 4 67 -14l13 -9l6 -6q4 -2 6 -6q16 -16 20 -37q12 -43 -20 -84q-23 -25 -66 -24q-37 -2 -63 16q-41 27 -27 70z" />
<glyph unicode="@" horiz-adv-x="1302" d="M78 600q0 104 37 219t98 199q80 109 202 191.5t269 118.5t287 -21q84 -35 200 -162q72 -76 107 -174.5t18 -198.5q-20 -117 -57 -182q-23 -37 -71 -89t-103 -93q-68 -51 -123 -64q-78 -18 -125 35q-6 6 -10 12q-80 -45 -207 -47q-158 -6 -207 80q-18 33 -18 90q0 14 1 42 t1 32q4 178 106.5 299t280.5 106q41 -4 58.5 -6t47 -11t50.5 -28l38 94q6 14 20.5 19.5t29 0.5t19.5 -19.5t1 -28.5q-90 -215 -121 -316q-35 -109 -45 -178q-8 -74 8 -92q18 -20 56 -12q41 10 96 51q47 37 91 84t61 76q33 53 49 157q29 168 -105 312q-106 113 -176 141 q-164 68 -358.5 -18t-313.5 -246q-53 -72 -85.5 -176.5t-32.5 -196.5q0 -195 94 -311q61 -76 177 -123t245 -51q133 -4 237.5 41t149.5 137q6 14 20.5 18t28.5 -2t18 -20.5t-2 -28.5q-57 -117 -181 -170t-273 -49q-141 4 -272.5 57.5t-205.5 145.5q-111 137 -110 356z M449 514q0 -37 10 -53q27 -47 139 -43q109 2 172 39q8 4 16 4q-2 29 5 67q8 78 45 193q22 69 55 153q-23 27 -47 35q-25 6 -84 11q-141 10 -223 -85.5t-86 -246.5q0 -6 -1 -33t-1 -41z" />
<glyph unicode="A" horiz-adv-x="1472" d="M-25 42q-2 15 8.5 26.5t24.5 13.5q80 8 178 10l117 258q53 119 117 326q76 240 115 338q47 115 73 168q29 59 54 94q16 23 30 35q20 20 43 20h4q45 0 80 -49q23 -31 45 -88q14 -35 33 -92q16 -55 21 -64q37 -92 81 -252q57 -201 74 -247q25 -72 92 -232q55 -137 82 -213 q16 -1 31 -1q86 0 143 20q14 4 28.5 -2.5t19 -20.5t-2 -28.5t-20.5 -18.5q-68 -23 -159 -24h-15q-82 0 -142 10q-68 5 -123 5q-106 0 -163 -20q-14 -4 -27.5 2.5t-18.5 20.5t1 27.5t20 19.5q68 25 159 26h18q80 0 141 -8l30 -4q-23 63 -71 181q-66 162 -92 235l-13 33 q-33 -2 -134 -9.5t-172 -10.5t-138 -3q-98 -287 -111 -426q0 -4 -2 -8q131 -2 187 -2q14 0 25 -11t11 -25.5t-11 -26t-25 -11.5q-57 0 -189 3q-99 2 -180 2h-50q-98 -1 -186 -11q-16 -2 -27.5 8.5t-13.5 25.5zM266 92h131q-2 4 -2 10q13 141 109 424q-27 0 -53 2 q-41 -121 -82 -211zM475 600q26 0 55 -2l29 78q123 326 229 510q-14 35 -28 53q-10 14 -19 18v-2q-8 -6 -18 -22q-20 -29 -49 -84q-25 -51 -70 -164q-39 -94 -112 -330zM573 598q59 0 396 23l-41 145q-45 156 -80 244l-23 69q-10 35 -18 58q-100 -184 -209 -475z" />
<glyph unicode="B" horiz-adv-x="1247" d="M44 51.5q-3 14.5 5 27.5t23 17q78 16 228 16q37 0 79 -1q-27 242 -37 604q0 39 -4 246.5t-8 318.5q-227 -6 -241.5 -6t-26 11t-11.5 25.5t11.5 26t25.5 11.5q2 0 258 6q8 6 16 6q10 0 21 -4q56 1 106.5 1t94.5 -1q162 -2 272 -21q139 -23 203 -73q68 -53 90 -158 q2 -16 3 -34.5t0 -31t-5 -32t-7 -27.5t-9.5 -28.5t-8.5 -24.5q-39 -131 -147 -187q113 -49 190.5 -148t79.5 -216v-8q1 -67 -29 -135q-32 -72 -88 -115q-80 -61 -208 -79q-93 -13 -213 -13q-47 0 -97 2q-45 2 -145 6q-101 4 -151 5h-26q-40 0 -90 -2q-66 -3 -110 -13 q-14 -2 -27.5 6t-16.5 22.5zM403 1282q2 -49 13 -508q22 3 51 3q15 0 31 -1q12 0 49 -3t53 -3q23 0 70 2t61 2q61 37 92 146q18 60 18.5 118t-18.5 115q-27 86 -86 123q-66 4 -155 6q-40 1 -85 1t-94 -1zM418 694q8 -346 35 -579v-9q127 -6 159 -6q41 -1 79 -1q151 0 241 16 q39 41 57 75q15 28 15 69q0 59 -31 147q-47 131 -113 204q-47 55 -82 82q-41 -2 -98 -2h-170q-39 2 -47 4h-2h-27h-16zM793 774q20 -2 36 -2q49 6 86 21q102 41 138 153q2 8 8 25l6 22q2 6 5 18.5t4 20.5t2 18.5t0 19.5t-3 17q-16 80 -61 117q-49 39 -168 58q-19 4 -37 6 q35 -41 53 -103q21 -65 22 -131q0 -63 -20 -127q-27 -84 -71 -133zM836 698l57 -59q68 -80 119 -221q33 -93 33 -160q0 -51 -19 -88q-10 -18 -25 -37q49 16 82 41q41 31 66 88q22 51 22 101v12q-2 113 -96 207q-94 96 -213 112q-14 2 -26 4z" />
<glyph unicode="C" horiz-adv-x="1185" d="M150 494q-17 102 -17 207q0 143 31 294q29 131 132 230.5t241 142.5q90 25 178 25t173 -40t142 -116l6 -8q2 68 11 125q2 14 14 23t27.5 7t24.5 -14.5t7 -28.5q-9 -57 -9 -145q0 -66 5 -149q20 -88 21 -189v-2l4 -14q2 -16 0 -27q-2 -14 -15 -22q-10 -10 -26 -11 q-10 0 -17.5 4.5t-9.5 8.5l-4 4q-2 4 -4 6v6q-2 0 -2 2v2v6l-2 17l-6 49q-8 72 -8 84q0 4 -5 63q-23 94 -69 158q-59 78 -149 108q-61 20 -129 20q-32 0 -66 -5q-57 -39 -121 -127q-84 -118 -125 -276q-33 -127 -33 -257q0 -32 2 -63q10 -166 75 -307.5t179 -229.5 q18 -2 43 -2q215 0 336 107q125 109 125 317q0 14 11.5 25.5t25.5 11.5t25.5 -11t11.5 -26q0 -242 -150 -373q-140 -124 -381 -124h-4q-162 0 -262 71q-188 137 -237 443zM223 506q45 -274 209 -393q43 -33 98 -47q-197 193 -219 522q-2 33 -2 65q0 137 34 271 q42 166 132 288q35 47 66 80q-115 -41 -199 -124t-104 -189q-30 -144 -30 -282q0 -97 15 -191z" />
<glyph unicode="D" horiz-adv-x="1316" d="M57 1287.5q-2 15.5 8.5 26.5t24.5 13q58 6 147 6h46q162 -2 186.5 -2t97 3t108.5 3t101.5 -4t109.5 -15t97 -33.5t98 -57.5q117 -90 170 -201q47 -96 60 -235q5 -53 6 -106q0 -83 -14 -167q-25 -145 -88.5 -263t-163.5 -177q-143 -83 -419 -83q-25 0 -50 1q-80 2 -250 16 q-152 10 -221 11q-14 0 -25.5 11t-11.5 25.5t11 25.5t26 11q72 0 227 -12h10q0 195 -11 586t-11 590h-45h-40q-86 0 -143 -7q-16 -2 -27.5 8.5t-13.5 26zM399 1257q0 -197 11.5 -590t11.5 -589q94 -6 162 -8q25 -1 49 -1q132 0 225 19q88 92 145.5 232.5t69.5 293.5 q3 37 3 73q0 121 -32 231q-40 142 -135 237l-35 35q-20 23 -36 35q-33 27 -60 35q-74 4 -99.5 4t-103 -3.5t-106.5 -3.5h-70zM879 1243q12 -10 24 -24l35 -35q102 -102 145 -253q32 -114 33 -237q0 -40 -4 -82q-10 -143 -58 -275t-128 -233q49 16 88 39q82 47 138 150.5 t77 236.5q15 84 15 165q0 45 -4 89q-12 125 -54 209q-47 96 -150 176q-67 54 -157 74z" />
<glyph unicode="E" horiz-adv-x="1224" d="M29 1292.5q0 14.5 12 24.5t27 10q355 -20 636 -21q94 0 179 3q8 0 49 6q66 6 84 8q55 6 80 6q20 2 34 0q23 -2 35 -14q8 -6 13 -19q2 -6 2 -10v-20v-54q-4 -63 -13 -157q-8 -86 -16 -160q-10 -80 -16 -96q-4 -14 -18.5 -20.5t-29 -2.5t-20.5 18.5t-2 28.5q2 4 6 33 q0 2 -2 2q-47 178 -203 377q-80 -2 -166 -2q-128 0 -266 4q4 -64 4 -151q0 -139 -10 -336q39 4 86 6t79 2t88 -2t77 -2q2 20 5 128.5t3 161.5q0 14 11 25.5t25.5 11.5t26 -11.5t11.5 -25.5q0 -63 -6 -199q-4 -94 -3 -171q1 -34 1 -66q2 -102 16 -192q2 -16 -7.5 -28.5 t-24.5 -14.5t-27.5 7t-14.5 23q-16 104 -16 245v32q-27 0 -84.5 2t-89 2t-76.5 -2t-84 -8q-2 -61 -4 -109q-1 -27 -1 -62q0 -70 5 -173q8 -162 8 -217l293 -4q133 70 230.5 185.5t129.5 254.5q0 2 2 4q0 6 3 14q4 20 24 17l8 -4q23 0 33 -21q29 -55 55 -252q12 -88 15 -149 q0 -35 -2 -60q-4 -33 -13 -49q-10 -18 -39 -24q-12 -2 -32 -5q-31 0 -84 3q-33 0 -83 4t-59 4q-440 10 -827 10q-14 0 -25.5 11t-11.5 25.5t11.5 26t25.5 11.5h152v772v260v96q0 2 -2 2l-173 8q-14 0 -24 12.5t-10 27zM279 115q39 0 79 -2q0 53 -8 215q-5 105 -5 177 q0 36 1 64q2 39 8 165t7 172t3 171q1 33 1 60q0 75 -5 102l-81 4v-96v-260v-772zM805 106q53 0 108 -2q10 0 60.5 -4t83.5 -4q51 -2 78 -2q8 2 12 2q2 4 2 8q2 20 2 52q-2 59 -14 141q-13 100 -31 176q-82 -225 -301 -367zM915 1237q109 -145 166 -287q6 53 13 113 q8 92 12 151v41h-6q-29 0 -78 -6q-16 0 -82 -8z" />
<glyph unicode="F" horiz-adv-x="1177" d="M10 40q-2 15 7.5 27.5t23.5 14.5q88 12 195 14q0 137 -2.5 428t-2.5 443q0 10 2.5 74.5t2.5 105.5q0 61 -5 98q-2 14 -4 25h-39q-58 0 -110 -4q-14 -2 -25.5 8t-13.5 25.5t8 26.5t27 13q58 5 134.5 5t170.5 -5q8 4 18.5 4t18.5 -6l37 -2q134 -7 231 -7q81 0 137 5 q12 0 63.5 7.5t84.5 9.5q53 6 88 6q49 0 72.5 -12.5t33.5 -49.5q6 -23 8 -59q5 -51 5 -132v-28q0 -61 -13 -272q0 -14 -12 -24.5t-26.5 -10.5t-22.5 10q-20 0 -23 19q-14 96 -95 239.5t-161 223.5q-58 -5 -140 -5q-99 0 -234 7l-19 2q-2 -86 -2 -266.5t-2 -266.5q47 3 107 3 q30 0 63 -1q18 0 76.5 -2t89.5 -2q-2 40 -2 80q0 118 14 227q2 16 14.5 25.5t27.5 7.5t24.5 -14.5t7.5 -26.5q-14 -107 -14 -224q0 -185 34 -396q2 -16 -7 -28.5t-24.5 -15t-27.5 7t-14 23.5q-20 143 -29 260q-33 0 -93.5 2t-76.5 2q-35 1 -66 1q-62 0 -108 -3 q0 -29 -7 -136t-9 -155q-1 -24 -2 -56q0 -30 2 -70q2 -80 12 -144q262 -8 282 -8q14 0 25.5 -11t11.5 -25.5t-11 -26t-26 -11.5q-68 0 -206 6q-117 5 -210 4h-34q-106 -1 -197 -16q-16 -2 -28.5 7.5t-14.5 24.5zM270 1270q0 -8 2 -19q4 -41 4 -104q0 -41 -2 -105.5t-2 -74.5 q0 -152 2 -443t2 -426h66q-8 68 -10 153q-1 34 -1 64q0 45 2 81q3 60 9 156.5t8 141.5q4 102 4 285.5t2 286.5q-47 4 -86 4zM874 1266q63 -70 125 -173.5t97 -195.5q6 102 6 180q1 32 1 60q0 55 -3 92q-4 29 -8 45q0 4 -2 6q-12 2 -33 2q-31 0 -80 -4z" />
<glyph unicode="G" horiz-adv-x="1388" d="M136 812q14 175 77 286q80 137 223 206q124 61 254 61q18 0 37 -1q207 -16 322 -170v23q0 103 16 167q2 16 15.5 23.5t28.5 4.5t22.5 -16.5t3.5 -27.5q-10 -47 -13 -99q-1 -24 -1 -53q0 -34 2 -77q3 -78 3 -111v-16q4 -16 7 -35q8 -63 8 -72q2 -18 2 -34q0 -31 -8 -52 q-2 -4 -7 -8q-8 -14 -22 -18q-29 -6 -43 20l-4 12q-2 8 -2 29q0 6 1 11t1 12v10v24q0 12 -2 43t-4 47q-25 117 -97.5 188t-177.5 93q-94 -10 -172 -123q-72 -104 -119 -280q-41 -156 -53 -324q-4 -63 -4 -113q0 -84 12 -133q23 -111 52 -157q6 -12 34.5 -37t36.5 -47 q38 -7 76 -7q99 0 199 47q139 66 213 187q25 43 34 98q0 74 3 129q0 68 4 99q-193 -4 -338 -21q-14 -2 -26.5 8t-14.5 24.5t8.5 27t24.5 14.5q196 22 569 22h33q14 0 25 -11t11 -25.5t-11 -25.5t-25 -11h-179v-29v-78q-2 -86 -10 -129q0 -27 2 -55q2 -250 13 -303 q2 -14 -7.5 -27.5t-24 -15.5t-27.5 7t-15 23q-6 43 -10 205q-94 -127 -247 -191q-105 -43 -209 -43q-48 0 -95 9q-145 31 -241.5 162t-137.5 315q-29 122 -29 250q0 44 3 89zM212 807q-4 -42 -4 -85q0 -117 25 -235q33 -145 101 -250.5t162 -148.5q-27 25 -39 43 q-31 53 -56 170q-12 52 -12 137q0 53 5 120q12 173 52 331q49 184 125 295q51 72 111 108q-121 -2 -231 -63q-111 -59 -172 -168q-55 -96 -67 -254zM1167 621v2v-2z" />
<glyph unicode="H" horiz-adv-x="1566" d="M29 47q0 14 10 26.5t24 12.5q61 4 130 4q-7 66 -7 102v10q0 34 4 92q4 66 3 97q0 80 -8.5 240t-8.5 239q0 33 7 199q3 77 3 126q0 55 -4 71q-20 1 -38 1q-36 0 -64 -3q-14 -2 -26.5 8t-14.5 24.5t8.5 26.5t24.5 14q42 3 69 3h13q28 -1 79.5 -5t73.5 -4h31h12q61 0 181 3 t178 3q14 0 25 -11t11 -25.5t-11 -25.5t-25 -11q-57 0 -165 -3.5t-155 -3.5q10 -34 10 -145q0 -28 -1 -60q-2 -97 -2 -146q0 -33 1 -46l4 -94q103 -12 227 -14q41 -1 88 -1q92 0 205 3q169 4 232 4q-2 74 -6 149q-2 29 -2 61.5t-1 71.5t-1 62q-4 90 -10 153q-217 2 -267 2 q-14 0 -25.5 11.5t-11.5 26t11.5 25.5t25.5 11q33 0 285 -2q4 2 10 2q10 2 19 -2q52 -1 100 -1q143 0 246 5q16 0 27.5 -10t11.5 -25.5t-10.5 -26.5t-24.5 -11q-131 -6 -324 -7q8 -61 11 -149v-80q2 -68 4 -113q20 -426 20 -794q154 2 250 2q14 0 25.5 -11.5t11.5 -25.5 t-11.5 -25.5t-25.5 -11.5q-102 0 -309 -4t-310 -4q-14 0 -25 11t-11 25.5t11 26t25 11.5q102 0 295 4q0 270 -10 569h-2q-61 0 -227 -4q-111 -3 -203 -3q-46 0 -88 1q-125 2 -234 14q6 -197 7 -600h120h125q14 0 25.5 -11t11.5 -25.5t-11 -26t-26 -11.5q-473 0 -587 -6 q-14 0 -26.5 10.5t-12.5 24.5zM217 870q0 -76 8 -237.5t8 -241.5q0 -35 -3 -101.5t-3 -100.5t6 -97h103q0 514 -12 764q-2 41 -2 75.5t2 63.5q1 39 1 85v47q-1 73 -12 130h-6q-33 0 -84 5q3 -18 3 -67t-3 -131q-6 -163 -6 -194z" />
<glyph unicode="I" horiz-adv-x="770" d="M16 1313.5q2 15.5 13.5 26t27.5 8.5q129 -12 287 -19q2 2 4 2q14 4 27 -2q96 -2 303 -2q14 0 25.5 -11t11.5 -25.5t-11.5 -26t-25.5 -11.5q-182 0 -272 2q6 -41 8 -87q1 -31 1 -66v-37q-1 -57 -1 -82q2 -84 9 -252t9 -254q0 -27 -2 -194v-46q0 -88 6 -141q188 6 295 6 q14 0 25.5 -11t11.5 -25.5t-11.5 -25.5t-25.5 -11q-106 0 -319 -7.5t-320 -7.5q-14 0 -25.5 11.5t-11.5 26t11.5 25.5t25.5 11q63 0 139 2q0 197 -22 590q-23 395 -25 584q-70 4 -135 10q-14 2 -24.5 13t-8.5 26.5zM225 1262q2 -195 23 -580q24 -463 24 -592q37 2 90 4 q-6 54 -6 143v46q2 168 2 194q-2 84 -9 253t-9 253q0 29 1 89v39q0 36 -1 65q-2 43 -10 81q-55 0 -105 5z" />
<glyph unicode="J" horiz-adv-x="1296" d="M96 276q-10 55 -10 98q0 61 20 101q25 49 70 86t96 51q23 6 45 6q33 0 65 -13q52 -21 79 -85q6 -14 1 -27.5t-19.5 -19.5t-28 -1t-19.5 20q-24 53 -74 53q-14 0 -30 -4q-35 -10 -68 -37t-51 -62q-12 -25 -12 -65q0 -37 10 -88q27 -143 197 -201q84 -29 166 -29 q75 0 149 25q41 14 72 31q25 51 30 127q4 31 4 94q0 68 3 98q13 194 13 361q0 264 -32 460q-96 4 -151 5q-14 0 -25.5 11t-11.5 25.5t11.5 25.5t25.5 11q18 0 206 -6q63 -2 113 -2t88 2q31 2 113 8q74 8 116 8q14 0 25.5 -11t11.5 -25.5t-11 -25.5t-26 -11q-41 0 -110 -6 q-82 -8 -115 -11q-29 -2 -59 -2q50 -173 50 -386t-50 -466q-2 -6 -11.5 -55t-14.5 -73.5t-19.5 -62.5t-30.5 -65q-55 -84 -190 -129q-78 -28 -170 -28h-9q-98 2 -184 32q-96 31 -162.5 96.5t-85.5 161.5zM813 156q12 14 23 28q14 20 24 51t15.5 52.5t13.5 66.5t10 62 q50 248 50 455q0 212 -52 382h-74l-8 2q29 -194 29 -450q0 -173 -13 -375q-2 -31 -2 -94q0 -66 -4 -98q-4 -45 -12 -82z" />
<glyph unicode="K" horiz-adv-x="1566" d="M0 1294.5q0 14.5 11.5 25.5t25.5 11h147h2q10 4 19 -2h127q4 0 6 2q16 6 31 -4q193 -2 297 -2q14 0 25 -11t11 -25.5t-11 -26t-25 -11.5q-100 0 -267 2q20 -89 20 -240q0 -26 -1 -55q0 -43 -5 -161.5t-5 -173.5q66 29 135 75.5t143 111t125 114.5l131 129l115 114 q25 23 82 70l22 18q-51 1 -97 1q-140 0 -243 -5q-16 0 -27.5 10.5t-11.5 26t10.5 26.5t24.5 11q98 4 208 5q37 0 77 1q80 0 174 -2q141 -2 209 -2q14 0 25.5 -11t11.5 -25.5t-11.5 -26t-25.5 -11.5q-68 0 -215 2q0 -2 -2 -4q-29 -27 -82 -70.5t-76 -66.5q-12 -10 -132 -130 t-190 -183q90 -100 244 -328q158 -233 252 -336q8 -8 10 -20q102 2 234 2q14 0 25.5 -11.5t11.5 -25.5t-11.5 -25.5t-25.5 -11.5q-412 0 -678 -20q-14 -2 -25.5 8t-13.5 25.5t8 26.5t27 13q162 12 358 17q-78 88 -231 315q-152 223 -240 322q-176 -150 -319 -207h-4 q2 -53 12 -201q8 -152 10 -240h262q14 0 25.5 -11t11.5 -25.5t-11 -25.5t-26 -11q-457 0 -635 -8q-16 0 -27.5 10t-11.5 25.5t10.5 26.5t24.5 11q74 4 158 6q-8 45 -8 102.5t4 125t4 96.5q0 41 -6 100l-2 39q-4 41 -6 62q-4 49 -4 129q0 53 2 121q1 40 1 76q0 107 -5 169 q-2 18 -3 49q2 43 3 50q0 20 -3 36h-153q-14 0 -25.5 11.5t-11.5 26zM231 1171q0 -29 2 -45q5 -74 6 -204q0 -22 -1 -45q-2 -67 -2 -120q0 -79 4 -126q0 -16 2 -32.5t4 -37t2 -33.5q6 -61 6 -102q0 -35 -4 -103.5t-4 -123t8 -97.5q49 0 104 2q-2 84 -10 234q-14 254 -14 270 v32q0 56 4 154q6 130 6 167q1 37 1 70q0 145 -21 224h-93q2 -14 2 -34q0 -6 -2 -50z" />
<glyph unicode="L" horiz-adv-x="1230" d="M16 1309.5q2 15.5 13.5 26t27.5 7.5q67 -6 157 -6q72 0 159 4h2q6 2 12 2q4 0 8 -2q229 12 299 13q14 0 25.5 -11.5t11.5 -25.5t-11 -25.5t-26 -11.5q-76 0 -270 -10q0 -66 8 -256q6 -152 6 -252v-47q0 -41 -8 -189q-6 -118 -6 -200v-39q2 -92 22 -176v-11q113 0 189 -2 h131q139 84 243.5 200t145.5 251q6 18 27 14q4 -2 8 -6h2q14 0 25.5 -11t11.5 -26q0 -168 -4 -235q-4 -82 -17 -135q-16 -76 -49 -99q-12 -8 -33 -12q-16 -2 -41 -4q-43 -6 -116 -8q-119 -2 -334 -2q-565 4 -569 4q-16 0 -27.5 10t-11.5 25.5t10 26.5t24 11q20 1 64 1 t113 -1q-17 67 -17 205q0 48 2 105q0 29 3 87t5 85q1 47 1 83.5t-1 61.5q-25 428 -26 535q-84 0 -156 6q-14 2 -24.5 13t-8.5 26.5zM246 1264q2 -106 26 -531q2 -28 2 -65t-2 -84q-2 -29 -5 -87.5t-3 -84.5q-2 -56 -2 -103q0 -135 17 -196v-11h94q-21 88 -23 186q-1 22 0 48 q0 86 6 200q8 148 9 179v41q0 99 -7 254q-6 184 -8 256q-57 -2 -104 -2zM844 98q70 2 123 2q72 2 112 6q20 2 33 7h6q10 10 19 51q10 47 14 127q4 63 4 147q-96 -193 -311 -340z" />
<glyph unicode="M" horiz-adv-x="1916" d="M5 17.5q-3 15.5 4 28.5t24 15q74 18 164 27q-2 203 -41 606q-39 408 -43 580h-47q-14 0 -25.5 11t-11.5 25.5t11 26t26 11.5q10 0 43.5 1t87 2t96.5 1q2 2 6 4q12 2 23 -2h141q35 0 53 -2q12 0 19 -2q16 -2 24 -11q8 -6 12 -16v-2v-2h2v-4l7 -19l14 -53q20 -78 22 -84 q31 -88 105 -260q80 -188 106 -264q4 -10 62 -197q37 -117 67 -188q18 -37 27 -62l31 117l35 135l36 150l27 102q27 100 105 334q41 123 69 197q16 45 29 69l14 25q8 14 19 20q8 6 22 9q8 0 21 2q20 0 55 2h67q6 4 14.5 4t14.5 -2h66q70 0 169 -1t101 -1q14 0 25.5 -11.5 t11.5 -26t-11.5 -25.5t-25.5 -11q-2 0 -101.5 1t-168.5 1h-43q-2 -72 -13 -178q-16 -172 -18 -211q-9 -171 -9 -354q0 -203 11 -420q106 4 248 4q14 0 25.5 -11.5t11.5 -25.5t-11.5 -25.5t-25.5 -11.5q-360 0 -600 -33q-14 -2 -26.5 7.5t-14.5 24.5t7 27.5t26 14.5 q132 19 286 27q-12 224 -12 427q0 185 10 353q2 45 19 213q10 104 12 170h-43q-35 -2 -53 -2h-6q-2 -6 -7 -14q-10 -23 -26 -64q-27 -66 -70 -195q-80 -240 -104 -329l-27 -103l-37 -147l-33 -135l-47 -183q-12 -37 -18 -57q-4 -12 -8 -20l-4 -9q-10 -14 -25 -16 q-16 -6 -30.5 3t-18.5 28q-2 10 0 24q2 2 3 6.5t1 6.5v2q-4 51 -47 149q-33 70 -72 195q-57 184 -61 194q-31 88 -105 260q-80 188 -106 265q-4 10 -25 90l-14 53q-16 2 -45 2h-111q18 -104 31.5 -234.5t18 -203t10.5 -244.5t8 -211t2 -92q0 -59 2 -105.5t8 -87.5v-10 q18 0 115.5 -3t146.5 -3q14 0 25.5 -11.5t11.5 -25.5t-11 -25.5t-26 -11.5q-50 0 -202 6q-83 4 -149 4q-57 0 -103 -2q-100 -6 -191 -28q-14 -4 -27.5 3t-16.5 22.5zM154 1276q4 -193 41 -578q41 -430 43 -606q54 2 120 2q-6 43 -8 93.5t-2 108.5t-2 87q-2 39 -8 215 t-11 248t-17.5 201t-33.5 231q-45 0 -122 -2zM520 1278l2 -2z" />
<glyph unicode="N" horiz-adv-x="1538" d="M16 39q-2 14 8.5 26.5t24.5 14.5q78 8 168 10q-8 88 -31 596q-16 360 -51 582q-51 -2 -61 -4q-14 -2 -26.5 7t-14.5 24.5t7 27.5t26 14q12 2 67 4l8 5q8 0 15 -3q29 0 135 7q84 4 139 4q29 2 47 2q8 0 15 -2h6q10 0 16 -6q18 -10 39 -48q14 -25 33 -65l49 -113 q113 -279 336 -633l164 -260l49 -77q20 115 22 333q2 260 17 355q25 166 26 426h-57q-46 -1 -89 -1q-128 0 -224 9q-14 2 -24.5 13t-8.5 26.5t13.5 26t27.5 8.5q110 -9 270 -9h33q33 0 141.5 2t167.5 2q14 0 25.5 -11t11.5 -25.5t-11.5 -25.5t-25.5 -11q-61 0 -176 -2 q0 -270 -27 -441q-14 -90 -16 -344q-2 -231 -25 -354q-2 -6 -1 -9t2 -13.5t1 -20.5q2 -23 -4 -37q-10 -31 -43 -35q-12 -2 -22 4q-4 2 -6 5l-4 4q-2 2 -4.5 6t-6.5 10l-24 35l-72 112l-162 259q-229 367 -344 645q-27 66 -47 110q-18 39 -29 60q-6 12 -10 18h-4 q-14 0 -45 -2q-27 0 -65 -2q10 -41 15 -92t7 -86t4.5 -95.5t3.5 -84.5q33 -602 33 -828q293 -6 295 -6q14 0 25.5 -11.5t11.5 -25.5t-11.5 -25.5t-25.5 -11.5q-66 0 -210 4q-96 3 -176 3q-39 0 -75 -1q-108 -2 -205 -12q-14 -2 -26.5 8.5t-14.5 24.5zM176 1270 q35 -223 51 -582q23 -514 31 -596h96q0 225 -32 823q-2 29 -4.5 91.5t-4.5 96.5t-8 83t-14 90q-62 -2 -115 -6z" />
<glyph unicode="O" horiz-adv-x="1183" d="M106 645q-2 32 -2 64q0 129 33 249q41 148 145.5 264.5t256.5 151.5q4 2 6 2q43 12 102 12q54 0 123 -10q109 -16 193 -84.5t132 -169.5q47 -100 69 -214q18 -97 19 -200q0 -19 -1 -38q-8 -256 -111 -447q-119 -215 -307 -241q-42 -6 -82 -6q-74 0 -142 20 q-104 30 -178.5 93t-131 153t-86 191.5t-38.5 209.5zM180 649q12 -186 94 -338q83 -149 218 -215q-80 90 -124 197.5t-52 228.5q-3 53 -3 104q-1 64 5 122q10 104 34 243q25 129 88 236q16 27 33 47q-154 -70 -231 -242q-64 -147 -64 -319q0 -31 2 -64zM358 725 q-3 -43 -3 -89q-1 -72 7 -146q12 -124 66.5 -230t151.5 -197q49 -11 103 -11q36 0 73 5q152 20 250 203q94 174 102 414q1 23 1 45q0 136 -32 248q-37 135 -120 227t-199 111q-53 8 -84 10h-6h-9q-8 -8 -20 -6q-8 4 -18 4q-20 -2 -41 -6q-55 -18 -105 -101 q-59 -100 -82 -223q-27 -147 -35 -258z" />
<glyph unicode="P" horiz-adv-x="1212" d="M34 23.5q-3 15.5 4 29t23 15.5q100 26 254 28q-16 166 -18 461q-2 326 -12 485q-2 33 -3 114t-8 122q-135 -8 -188 -18q-14 -2 -27.5 7t-15.5 23.5t7 27.5t24 15q57 8 192 17q8 14 23 18q25 8 41 -14q109 6 215 8q41 0 79 1q113 0 197 -5q137 -8 180 -31 q94 -49 149.5 -147.5t59.5 -208.5q1 -11 0 -22q0 -102 -49 -187q-55 -94 -168 -131q-114 -37 -288 -37h-35q-14 0 -128 3q-68 2 -116 2q-32 0 -55 -1v-41q2 -297 18 -459l184 -6q121 -4 172 -4q14 0 25.5 -11t11.5 -25.5t-11 -26t-26 -11.5q-51 0 -207 6q-92 4 -169 4 q-53 0 -97 -2q-108 -4 -194 -24q-14 -4 -27.5 3t-16.5 22.5zM348 1282q6 -47 7 -131t3 -104q10 -141 13 -375q23 1 55 1q48 0 116 -2q114 -3 130 -3h34q84 0 146 8q63 86 74 168q5 35 5 70q0 110 -48 219q-51 115 -135 153q-59 3 -128 3q-35 0 -73 -1q-99 -2 -199 -6z M825 1284q57 -51 95 -135q52 -118 52 -236q0 -37 -5 -73q-10 -76 -60 -156q33 6 62 16q88 30 130 102q40 69 40 158v9q-4 90 -50.5 172t-119.5 121q-29 14 -144 22z" />
<glyph unicode="Q" horiz-adv-x="1261" d="M106 645q-2 32 -2 64q0 129 33 249q41 148 145.5 264.5t256.5 151.5q4 2 6 2q43 12 102 12q55 0 123 -10q109 -16 193 -84.5t132 -169t69 -214.5q19 -97 19 -200q0 -19 -1 -38q-8 -256 -111 -447q-90 -164 -223 -219v-22q14 -109 82 -152q33 -20 71 -20q52 0 115 38 q14 8 37 33q21 25 31 33q6 31 37 31q14 0 25 -11.5t11 -25.5q0 -12 3 -47v-53q0 -72 -25 -113q-39 -66 -111 -93q-46 -18 -92 -18q-28 0 -56 6q-75 17 -126 70q-63 63 -74 197q-2 25 -2 127q-4 -2 -10 -2q-42 -6 -82 -6q-74 0 -142 20q-104 29 -178.5 92.5t-131 153.5 t-86 191.5t-38.5 209.5zM180 649q10 -150 66.5 -280.5t152.5 -210.5q-50 88 -50 165q0 10 1 21q6 84 70 133l6 4q-35 86 -37 225v16q0 130 29 255q37 158 108 254q37 51 82 80q-147 -16 -249.5 -115.5t-145.5 -241.5q-35 -114 -35 -244q0 -30 2 -61zM424 338v-13 q0 -46 24 -103q29 -64 82 -122q10 -10 11 -24q69 -24 144 -24q35 0 71 5l20 4l2 35q3 60 3 107q0 71 -7 112q-16 94 -72 131q-17 11 -88 11h-12q-90 -2 -137 -39q-37 -29 -41 -80zM429 710q1 -128 34 -208q55 27 139 28h15q90 0 126 -22q82 -53 105 -182q7 -46 7 -121 q0 -50 -3 -113v-2q90 51 154 170q94 174 102 414q1 23 1 45q0 135 -32 248q-37 135 -120 227t-199 111l-23 4q-6 -4 -12 -4q-92 0 -164 -99q-66 -90 -102 -239q-28 -125 -28 -248v-9zM850 -143q10 -100 53 -146q50 -50 126 -50q8 0 17 1q87 6 123 72q16 27 17 78v47l-2 -4 q-27 -29 -47 -41q-72 -44 -135 -44q-50 0 -93 27q-35 23 -59 60z" />
<glyph unicode="R" horiz-adv-x="1435" d="M10 42q-2 15 8.5 26.5t24.5 13.5q142 14 330 18q-2 248 -39 783q-2 41 -10 229q-6 131 -11 182q-147 -10 -215 -28q-14 -4 -27.5 3t-17.5 21.5t3 27.5t22 17q80 23 241 35q8 6 20.5 8t25.5 -6q75 4 149 4q49 0 98 -2q178 -4 306 -28q152 -31 204 -89q55 -59 60 -213v-15 q0 -153 -80 -241q-53 -61 -135 -92q18 -14 32 -30q90 -98 95 -291v-56v-65q47 -14 88 -15q32 -1 60 9q64 20 120 86q0 41 -2 106.5t-2 81.5q0 14 11 25.5t25.5 11.5t26 -11t11.5 -26q0 -10 2 -78q1 -45 1 -86v-42q-1 -60 -10 -109q-14 -102 -59 -154q-44 -53 -113 -53 q-22 0 -47 6q-47 12 -89 43t-66 72q-25 43 -29 121q-2 23 -2 71v60q-4 166 -74 243q-31 35 -88 52q-25 -4 -51 -6q-54 -5 -134 -5h-28q-147 4 -149 5q-4 0 -17 -3l-26 -8q-16 -2 -29 -2q20 -326 22 -547h263q14 0 25 -11t11 -25.5t-11 -25.5t-25 -11q-455 0 -658 -21 q-16 -2 -27.5 8.5t-13.5 25.5zM385 1298q6 -61 12 -184q8 -186 11 -227l10 -137q8 2 22 2q10 0 31 -2q14 -2 21 -2q10 0 114 6q63 4 110 5q16 0 29 -1q35 -2 66 -6q23 84 23 172q0 46 -6 94q-18 137 -91 252l-18 26q-51 4 -109 4q-44 2 -89 2q-67 0 -136 -4zM770 1290 q78 -119 98 -264q7 -52 7 -103q0 -91 -23 -178q4 -2 10 -2q121 23 187 95q59 66 59 190v16q-4 125 -39 164q-37 39 -166 66q-59 10 -133 18v-2zM1098 211q6 -33 18 -53q14 -27 45 -49.5t62 -28.5q16 -4 31 -4q34 0 56 24q30 34 44 117q4 24 6 55q-49 -47 -107 -63 q-32 -10 -69 -10q-40 0 -86 12z" />
<glyph unicode="S" horiz-adv-x="1103" d="M174 457v55q0 10 2 16v9q0 4 2 6q2 10 10 18q18 14 39 6q12 -4 19 -16q4 -6 6 -16q2 -6 2 -21q4 -49 6 -57q2 -10 5 -41t4 -43.5t5.5 -36t9.5 -36.5t13 -30.5t18 -33.5q53 -76 158 -120q100 -42 209 -42h10q10 0 21 2q78 63 110 184q13 42 13 85q0 59 -25 121 q-43 106 -131 189q-16 14 -43 29l-49 10q-203 47 -281 101q-112 72 -112 204q0 25 4 52q18 119 104 200.5t207 112.5q59 18 122 18q52 0 108 -13q122 -28 198 -112q10 -10 20 -24q-4 70 -14 123q-2 14 7.5 27.5t23.5 15.5t27.5 -7.5t15.5 -23.5q8 -57 12 -119q4 -63 6 -143 t4 -115q0 -2 1 -11t2 -23.5t1 -24.5q2 -27 3 -41q0 -8 -3 -14v-9l-4 -12q-10 -18 -32 -18q-31 0 -41 28q-4 12 -2 27q0 2 1 7t1 7v2q-2 14 -7.5 66.5t-9.5 71.5l-12 55q-8 37 -21.5 60.5t-31.5 45.5q-89 99 -249 99h-3q-45 -25 -80 -82q-37 -57 -53 -129q-14 -56 -14 -102 q0 -13 1 -25q12 -121 76 -193l41 -8q219 -51 301 -90q162 -78 191 -229q9 -46 9 -88q0 -54 -15 -101q-39 -127 -149 -191.5t-247 -68.5h-10q-124 0 -240 48q-122 50 -188 142q6 -158 6 -176q0 -14 -11 -25.5t-25.5 -11.5t-26 11.5t-11.5 25.5q0 6 -8 277zM272 1038 q-3 -19 -3 -37q0 -93 79 -145q54 -36 154 -63q-45 78 -56 172q-1 14 -1 30q1 50 15 110q20 79 58 142q18 29 39 51q-14 -2 -29 -6q-102 -27 -172.5 -93t-83.5 -161zM733 659q82 -87 122 -195q23 -61 23 -122q0 -47 -14 -94q-31 -102 -84 -164q88 18 151.5 67.5t88.5 129.5 q11 35 11 76q0 37 -9 79q-20 113 -150 174q-53 26 -139 49z" />
<glyph unicode="T" horiz-adv-x="1181" d="M74 815q2 18 8 105l8 172q8 104 14 161q6 37 11 58q4 14 8 22q8 18 24 27q8 2 25 4h27q14 1 34.5 1t47.5 -1q88 0 241 -4l117 -4q6 4 14 4q12 0 21 -6q225 -6 254 -6q6 0 37 2l67 6q41 4 64 6h22h10q10 0 19 -6q14 -8 20 -27q4 -10 7 -22q4 -23 4 -60q4 -61 4 -166 q0 -72 -2 -173t-2 -109q0 -14 -11.5 -25.5t-26 -11.5t-25.5 11t-11 26q0 8 2 109.5t2 172.5q0 104 -2 162q-2 29 -4 45h-2l-62 -6l-65 -6q-35 -2 -45 -2q-31 0 -234 6q5 -221 5 -352v-41q-1 -135 -6 -394.5t-5 -394.5q137 0 234 17q16 2 28.5 -7.5t14.5 -24.5t-7.5 -27.5 t-23.5 -14.5q-113 -16 -268 -16q-6 -2 -14.5 -2t-16.5 4h-23q-167 3 -249 3q-41 0 -62 -1q-16 0 -27.5 10t-11.5 25.5t10.5 26.5t24.5 11q47 3 107 3q30 0 63 -1q-8 122 -8 344v93v89q0 255 -10 384q-2 37 -3 160v34q0 48 -4 80q-98 2 -161 2q-26 1 -46.5 1t-33.5 -1h-15 q-4 -16 -8 -45q-6 -55 -14 -160q-2 -39 -8 -170q-6 -88 -9 -108q-2 -16 -14 -25.5t-27.5 -7.5t-24.5 14.5t-7 26.5zM188 1300l2 3q-2 -1 -2 -3zM483 1286q5 -32 5 -79q0 -16 -1 -33q0 -123 2 -156q11 -142 11 -428v-49v-80q0 -233 10 -359q4 0 44 -1t60 -1q0 135 5.5 394.5 t6.5 394.5v41q0 131 -5 352l-101 4h-37z" />
<glyph unicode="U" horiz-adv-x="1376" d="M20 1297.5q0 15.5 11.5 25.5t27.5 10q61 -3 128 -2q216 0 489 29q14 2 26.5 -8.5t14.5 -24.5t-8.5 -26.5t-24.5 -14.5q-180 -20 -330 -26q2 -35 2 -73.5t-2 -80.5q-4 -84 -14 -198.5t-12 -166.5q8 -8 6 -20q-6 -23 -10 -43q-2 -49 -2 -92q10 -70 53 -127q76 -96 225 -129 q55 -12 110 -12q82 0 164 26q136 43 213 150q22 139 22 280q0 236 -62 477q-2 6 -3 11q-53 -2 -99 -2q-78 0 -138 6q-14 2 -24.5 14t-8.5 26.5t14.5 24.5t26.5 8q89 -6 146 -6h27q62 2 172 8.5t177 6.5q14 0 25.5 -11.5t11.5 -26t-11 -25.5t-26 -11q-57 0 -219 -8 q46 -178 60 -366q4 -61 5 -123q1 -130 -19 -266q-28 -200 -103 -359q-47 -102 -147 -148q-82 -38 -175 -39q-20 0 -41 2q-109 10 -208 66.5t-152 144.5q-60 106 -78 244q-11 88 -12 189q0 58 4 122q4 61 14 175t14 197q2 44 3 84q0 36 -2 68q-43 -1 -84 -1q-73 0 -142 4 q-14 0 -24.5 11t-10.5 26.5zM330 453q16 -141 73 -238q41 -72 124 -119t179 -55q18 -1 35 -2q75 -1 139 29q78 36 115 116q47 105 76 230q-90 -88 -221 -119q-70 -17 -139 -17q-60 0 -119 13q-164 35 -250 143q-6 8 -12 19z" />
<glyph unicode="V" horiz-adv-x="1486" d="M-18 1294.5q0 14.5 11 25.5t25 11q80 0 227.5 -8t219.5 -8t219 16q16 2 28.5 -7t14.5 -24.5t-7 -27.5t-24 -15q-102 -15 -242 -15q-42 0 -87 1q49 -66 84 -188l30 -127q16 -74 29 -109q86 -258 201 -522q4 -4 24 -55l35 -86q18 -39 29 -66q10 27 22 74q10 39 25 102 q14 57 18 68q33 106 133 475q78 289 136 457q-193 -8 -295 -9q-14 0 -25.5 11.5t-11.5 26t11.5 25.5t25.5 11q102 0 305 8.5t305 8.5q14 0 25.5 -11.5t11.5 -26t-11.5 -25.5t-25.5 -11q-94 0 -238 -6q0 -4 -2 -8q-49 -143 -139 -472q-94 -346 -135 -475q-2 -10 -14 -65 q-16 -66 -27 -103q-16 -63 -31 -98q-10 -23 -20 -37q-20 -27 -49 -24q-16 2 -27 16q-4 4 -10 12q-6 10 -15 29l-12 25q-14 20 -67 92q-72 96 -105 151q-137 238 -307 662q-10 27 -66 147q-37 82 -55 135q-61 2 -111 2q-14 0 -25 11.5t-11 26zM174 1253q14 -39 47 -114 l66 -150q168 -414 307 -657q26 -46 65 -99q-12 29 -14 35q-119 266 -205 527q-12 39 -30 116l-31 123q-39 141 -96 195q-8 8 -13 18q-6 2 -41.5 3t-54.5 3z" />
<glyph unicode="W" horiz-adv-x="1851" d="M-25 1301.5q0 15.5 11.5 25.5t27.5 10q51 -2 158 -9q106 -7 174 -10q25 -1 54 -1q47 0 103 3q89 5 156 21q14 4 27.5 -3t17 -22.5t-4 -28.5t-23.5 -15q-108 -28 -273 -28q-38 0 -79 1q18 -49 34.5 -114.5t24.5 -106.5l23 -123q16 -82 20 -106q12 -68 31.5 -134.5 t55.5 -169t46 -135.5q25 -76 49 -194l31 96q86 295 203 760l26 112q16 76 27 115v15v10v14q0 23 6 35q14 33 49 29q8 -2 15.5 -6.5t9.5 -8.5l4 -4q2 -4 3 -8t3 -10q2 -10 6 -27q2 -16 13 -80q23 -127 32 -170q4 -18 66 -272q39 -164 74 -262q12 -37 47 -119q37 -88 49 -125 q8 -23 31 -123l4 -16q10 25 20 63q14 55 37 172q14 68 44 191t40 174q10 41 42 239.5t64 303.5q-141 -9 -247 -9q-53 0 -97 2q-14 0 -24 12.5t-10 27t12 24.5t26 10q97 -1 152 -1h44q52 1 199.5 11.5t200.5 12.5q16 0 27.5 -10.5t11.5 -26t-10 -26.5t-24 -11 q-53 -2 -183 -12q-37 -104 -69.5 -312.5t-40.5 -251.5l-43 -172q-29 -123 -41 -188q-25 -123 -39 -180q-18 -63 -35 -101q-12 -25 -27 -36q-27 -25 -55 -15q-14 4 -22 17q-4 6 -7 12q-4 8 -8 22q-4 18 -14 58q-23 96 -29 114q-12 37 -47 121t-49 123q-35 98 -76 270 q-53 227 -63 269q-10 39 -25 114q-23 -96 -31 -127q-117 -469 -202 -763l-39 -132q-14 -43 -23 -65q-4 -14 -8 -23l-6 -12l-8 -8q-14 -10 -31 -8q-25 4 -35 26q-4 12 -4 25v16l-16 78q-18 37 -50 108.5t-47 98.5q-174 340 -249 612q0 6 -17.5 75t-30.5 112q-18 61 -32 98 q-6 10 -11 21q-55 2 -92 4q-14 0 -24.5 11t-10.5 26.5zM150 1255q16 -39 34 -102q14 -45 30.5 -113.5t18.5 -72.5q72 -269 246 -605q-6 14 -33 97l-36 110q-12 39 -29 99q-18 59 -29 114q-4 25 -20 115q-16 92 -24.5 130t-26 105.5t-37.5 116.5q-27 2 -94 6z" />
<glyph unicode="X" horiz-adv-x="1542" d="M-8 39q0 14 11 25.5t26 11.5q18 0 227 -4q2 8 6 14q147 209 402 502q-201 242 -293 373l-66 98q-47 72 -84 123t-76 88h-86q-14 0 -25 11t-11 25.5t11 25.5t25 11h54h2h2h147q309 0 428 7q14 0 26.5 -10.5t12.5 -25t-10 -26.5t-25 -12q-137 -8 -338 -8q35 -43 88 -115 l119 -162q74 -94 201 -237l22 -25q27 33 51.5 71t52.5 87t48 80l109 155q72 100 96 140q-139 0 -264 12q-14 2 -24.5 13t-8.5 26.5t13.5 26t27.5 8.5q128 -12 263 -12q164 0 337 18q16 2 27.5 -8.5t13.5 -25.5t-8.5 -26.5t-24.5 -13.5q-129 -14 -262 -16q-37 -57 -117 -169 t-117 -169q-16 -25 -44.5 -76t-57.5 -94t-59 -78l-2 -4l137 -154l174 -215q100 -123 176 -199q125 -4 178 -4q14 0 25.5 -11t11.5 -25.5t-11 -25.5t-26 -11q-55 0 -195 5q-87 3 -158 3q-43 0 -79 -1q-98 -3 -184 -22q-16 -2 -28.5 6.5t-15.5 23.5t5 27.5t22 16.5 q88 18 201 23q-51 47 -100 103t-119 142l-88 113l-51 63q-233 -268 -371 -460h32q205 0 318 24q16 2 28.5 -6t15.5 -23.5t-5 -27.5t-22 -16q-67 -15 -165 -21q-84 -6 -152 -5h-20q-74 1 -187 3t-156 2q-14 0 -25.5 11.5t-11.5 25.5zM203 1270q35 -39 69 -90l76 -111l55 -84 q92 -131 289 -364l47 53l-28 31q-129 145 -203 241l-121 162q-70 96 -121 156q-4 2 -4 6h-59zM739 563l58 -69l75 -97l86 -104l80 -92q47 -51 92 -88v-2h91q-57 61 -129 147l-174 213l-130 147z" />
<glyph unicode="Y" horiz-adv-x="1490" d="M-39 1294.5q0 14.5 11.5 25.5t25.5 11q104 0 315 8.5t316 8.5q14 0 25.5 -11.5t11.5 -26t-11.5 -25.5t-25.5 -11q-104 0 -307 -8l18 -29q12 -20 18 -29q223 -324 373 -567q2 0 5 -5t7 -13l9 -17q4 6 18 33l98 190q72 141 126.5 238.5t115.5 185.5h-66q-27 0 -71.5 1 t-82.5 2t-71 1q-14 0 -25.5 11.5t-11.5 26t11.5 25.5t25.5 11q33 0 71 -1t84 -2t70 -1q34 -1 65 -1q92 0 159 5l88 10q59 6 96 7q14 0 25.5 -11.5t11.5 -26t-11.5 -25.5t-25.5 -11q-31 0 -86 -6q-74 -8 -94 -11q-33 -2 -72 -4q-66 -90 -122 -187t-138 -257l-104 -203 q-18 -35 -25 -43q-12 -18 -27 -28q-6 -4 -10 -9q8 -63 19 -211q12 -143 24 -221v-8h81q109 0 151 4q16 2 27 -8t13.5 -25.5t-8 -27t-24.5 -13.5q-29 -3 -179 -3q-75 0 -180 1h-56q-78 0 -130 -4q-84 -4 -113 -18q-14 -6 -28.5 -1t-20.5 18.5t-0.5 27.5t17.5 20q43 20 141 27 q54 4 135 4h57h43q-12 78 -24 221l-4 53l-154 232l-172 254q-115 170 -192 268q-86 106 -138 141h-61q-14 0 -25.5 11.5t-11.5 26zM123 1260q43 -43 104 -119q80 -100 197 -269l285 -428q-4 47 -11 88q0 8 2 17q-6 8 -12 20q-4 8 -8 17l-8 12q-2 4 -2 6q-150 242 -373 563 l-23 37l-20 33q-8 12 -23 25q-61 -2 -108 -2z" />
<glyph unicode="Z" horiz-adv-x="1155" d="M109 117q6 16 18 37q20 33 59 79l64 72q37 43 41 47l565 721q8 10 47 53l74 80q43 47 63 76l4 2q-6 2 -24 4q-85 11 -222 11q-39 0 -83 -1q-274 -98 -484 -481q-6 -10 -18 -10q-14 -20 -39 -12q-14 4 -21 17.5t-3 27.5q4 18 8 100q2 63 4 168v92v68v51q0 10 2 16v8v5 q4 10 10 16q18 20 49 16q8 0 13 -2h4h30q49 0 127 -4q106 -6 152 -6q41 0 145 3q78 2 143 2h41q78 -1 150 -11q29 -4 41 -8q18 -2 29 -8q25 -10 30 -29q8 -14 2 -33q-2 -6 -8 -16l-22 -33l-70 -80l-74 -80q-37 -39 -43 -47l-565 -721q-4 -6 -43 -49l-63 -72q-35 -43 -52 -71 q-6 -10 -10 -19l13 -6q16 -6 47 -6q25 -2 61 0q45 2 49 2q10 0 178 -4l19 6q29 8 43 14q86 43 219 169t221 235v22q0 14 11.5 25.5t25.5 11.5t25.5 -11t11.5 -25.5t-1 -76.5q0 -31 -1 -52q0 -20 1 -32q1 -24 5 -68t12 -77q2 -8 17 -55q14 -43 16 -70v-24q0 -27 -20 -43 q-10 -8 -29 -13q-12 -4 -31 -6q-33 -4 -86 -6q-88 -2 -239 -2l-242 4q-141 4 -156 4q-2 0 -47 -2q-20 -1 -36.5 -1t-28.5 1q-43 2 -70 10q-43 14 -57 48q-10 20 -2 49zM176 100l2 -2q0 2 -2 2zM229 897q168 285 379 397h-59q-47 0 -156 6q-89 5 -138 5h-15h-4v-37v-70v-90 q-2 -106 -5 -172q-2 -21 -2 -39zM633 80q61 0 115 -2q150 0 237 2q51 2 80 6q8 0 14 2v6q0 18 -12 49l-20 64q-17 75 -17 205v28q-88 -102 -200.5 -206.5t-196.5 -153.5z" />
<glyph unicode="[" horiz-adv-x="813" d="M229 586q0 94 1 218t1 179v33q0 27 -1 66.5t-1 72.5v107q0 23 2 36q0 8 2 15v6q4 10 11 16q20 23 53 13q10 -2 14 -5q193 -27 457 17q16 2 28.5 -7.5t14.5 -24.5t-7.5 -27.5t-23.5 -14.5q-209 -33 -370 -24q25 -225 -7 -555q-10 -61 -5 -181t11.5 -181.5t20.5 -180.5 q10 -94 19 -182q4 -41 6 -146q4 -109 14 -166h45q63 0 153.5 1t96.5 1q14 0 25.5 -11t11.5 -25.5t-11.5 -25.5t-25.5 -11q-6 0 -96 -1t-154 -1q-92 0 -147 2q-33 2 -54 4q-12 2 -20 4q-14 4 -25 10q-10 10 -14 27q0 6 -2 16v41q0 41 4 117q10 182 10 188q-2 68 -16 199 q-12 135 -17 201q-4 86 -4 180zM303 589q0 -93 4 -179q2 -66 17 -199q12 -133 16 -201q0 -10 -10 -196q-4 -74 -4 -113v-27q16 0 45 -2q24 -2 55 -2q-8 57 -12 166t-6 141q-6 61 -19.5 181.5t-20 182.5t-11.5 184t5 186q31 332 7 553q-33 2 -66 6v-10v-105q0 -33 1 -73 t1 -66v-33q0 -57 -1 -179t-1 -215z" />
<glyph unicode="\" horiz-adv-x="901" d="M86 1522q-2 16 6 28.5t23.5 15.5t28 -5.5t16.5 -22.5q25 -127 88 -273.5t167.5 -343t137.5 -268.5q37 -78 146.5 -352t193.5 -414q8 -12 5 -26.5t-16.5 -22.5t-27.5 -5t-23 17q-88 141 -201.5 425t-142.5 346q-31 63 -136 263.5t-171.5 354.5t-93.5 283z" />
<glyph unicode="]" horiz-adv-x="673" d="M68 1294.5q0 14.5 11 25.5t25 11q12 0 49 1t94.5 4t100.5 5q94 2 148 2q33 0 53 -2q10 0 18 -2q16 -2 25 -10q14 -10 20 -35q4 -12 6 -32q4 -33 5 -84q0 -35 -1 -86.5t-1 -53.5q0 -135 11 -402t11 -400q0 -31 -1 -123.5t0 -154.5t5 -124q0 -12 17 -76q14 -63 8 -96 q-8 -45 -41 -59l-15 -4h-6h-16q-18 2 -49 4l-150 14q-109 10 -155 14q-78 6 -97 7q-14 0 -25.5 11t-11.5 25.5t11.5 25.5t25.5 11q23 0 103 -6q47 -4 143 -14q-10 70 -12 141.5t4 158.5t10 133t17 150q6 59 10 127t5 111t-1 131t-3 112.5t-6 132t-5 118.5q-2 20 2 145 q2 74 -2 119q-27 -2 -58 -2l-100 -6q-59 -2 -96 -3.5t-50 -1.5q-14 0 -25 11.5t-11 26zM419 -111.5q-1 -111.5 13 -201.5q80 -8 119 -11q31 -2 47 -4v2q4 18 -6 68q-16 70 -19 88q-4 59 -5 122.5t0 159t1 124.5q0 133 -11 400t-11 402q0 2 1 53.5t1 86.5q0 47 -4 75 q0 8 -2 15q-16 2 -47 2h-47q4 -47 2 -121q-4 -123 -2 -143q2 -25 5 -102t4 -109.5t4 -100t2 -109.5t-2 -100.5t-3 -111.5q-4 -51 -10 -103q-16 -137 -22.5 -203.5t-7.5 -178zM553 1268h2h-2z" />
<glyph unicode="^" horiz-adv-x="921" d="M51.5 778.5q4.5 14.5 18.5 20.5q35 16 90 106q35 55 106 195q78 152 103 192q25 43 45 68q27 35 55 41q23 4 45 -12q6 -4 18 -17q45 -41 95 -139q61 -121 71 -137q102 -154 215 -305q8 -12 6.5 -27.5t-14 -25t-28 -7.5t-25.5 14l-215 310q-12 18 -76 145q-43 86 -78 119 l-6 4q-2 -4 -8 -10q-14 -18 -37 -58q-18 -29 -100 -188q-70 -135 -111 -203q-66 -104 -119 -131q-14 -6 -28.5 -2t-20.5 18.5t-1.5 29z" />
<glyph unicode="_" horiz-adv-x="1046" d="M-27 -207q-4 14 3.5 27.5t21.5 17.5q61 18 133 21.5t173.5 -0.5t125.5 -4q266 0 576 16q14 0 26 -10.5t12 -24.5t-10 -26.5t-24 -12.5q-313 -16 -580 -16q-35 0 -132 4t-160.5 1t-119.5 -17q-14 -4 -27.5 3t-17.5 21z" />
<glyph unicode="`" horiz-adv-x="667" d="M277.5 1357.5q5.5 14.5 19 20.5t27.5 2q33 -12 65.5 -26.5t69.5 -34.5l61 -31q25 -12 68 -36.5t59 -32.5q12 -8 16.5 -22.5t-3 -28t-21.5 -17.5t-29 2q-16 10 -59 35l-68 35l-57 30q-35 18 -65.5 32.5t-61.5 25.5q-14 6 -20.5 19t-1 27.5z" />
<glyph unicode="a" horiz-adv-x="1165" d="M100 244q2 76 35 149.5t88 114.5q55 39 120 63.5t142.5 34.5t130 13t134.5 2q-4 190 -91 264q-31 29 -112 41q-43 6 -85 6t-83 -6q-84 -14 -121 -49q-20 -19 -20 -45q0 -16 8 -35q8 -18 20.5 -23.5t38.5 -3.5q14 0 26.5 -10t12.5 -24.5t-10.5 -27t-24.5 -12.5h-12 q-37 0 -61 11q-37 16 -56 61q-16 37 -16 69q0 53 43 95q53 49 160 65q50 9 101 9q44 0 89 -7q102 -16 152 -57q59 -53 87 -136q27 -80 26 -158v-6q-1 -81 -1 -167q-3 -66 -3 -117q0 -76 7 -116q16 -109 80 -158q39 -29 103 -31q35 0 53 25q20 27 26 80q3 25 3 58 q0 58 -9 142q-2 16 8.5 27.5t25.5 13.5t26.5 -8t13.5 -24q9 -91 9 -154q0 -36 -3 -63q-10 -74 -41 -115q-40 -55 -107 -55h-5q-90 2 -148 47q-63 49 -92 133q-39 -29 -71.5 -50.5t-75.5 -47t-85 -40t-88 -25.5q-38 -9 -79 -9h-15q-49 2 -96 16q-82 23 -120 89.5t-38 150.5z M174 237q0 -133 105 -163q42 -12 85 -12q11 0 23 1q-57 76 -70 138q-3 22 -3 48q0 35 6 75q10 72 36 133q12 27 27 49q-66 -23 -115 -60q-40 -29 -66 -86q-28 -62 -28 -123zM358 209q2 -10 7 -21l4 -16q2 -8 8 -19.5t9 -16.5t11 -17l11 -17q2 -2 13 -16t13 -16 q123 25 301 157q8 6 17 9q-7 44 -7 122q0 52 3 119q0 43 2 70q-197 0 -299 -23q-33 -29 -58 -84q-25 -56 -34 -122q-5 -35 -4 -64q-1 -25 3 -45z" />
<glyph unicode="b" horiz-adv-x="1011" d="M-50 1295.5q-3 15.5 5 27.5t22 16q61 12 170 13q61 -2 101 -9q25 -6 41 -14q27 -16 33 -41q2 -14 0 -59l-7 -88q-8 -135 -8 -152v-74q78 78 213 99q37 5 74 5q63 0 125 -15q98 -27 155 -91q90 -98 121 -251q16 -77 16 -149.5t-16 -141.5q-37 -156 -141 -256.5 t-270 -100.5q-162 0 -273 88v-92q0 -14 -11 -25.5t-25.5 -11.5t-25.5 11.5t-11 25.5q0 164 -2.5 489.5t-2.5 489.5q0 18 9 158l6 86v33q-6 2 -17 4q-31 6 -84 8q-100 0 -153 -12q-16 -2 -28.5 6t-15.5 23.5zM307 760q0 -86 2 -271.5t2 -283.5q2 -2 6 -4q96 -113 267 -113 q70 0 127 23q47 47 55 178q2 28 2 57q0 104 -23 221q-31 152 -88 256.5t-122 110.5q-7 0 -13 6q-84 -14 -141 -57t-68 -109q-2 -8 -6 -14zM612 944q43 -33 82 -102q59 -104 90 -267q25 -126 25 -233q0 -28 -2 -55q-6 -82 -27 -137q106 78 142 237q16 67 16 135q0 62 -13 125 q-28 133 -104 217q-68 74 -209 80z" />
<glyph unicode="c" horiz-adv-x="933" d="M96 608q14 202 142 312q118 100 294 101q16 0 33 -1q59 -2 92 -7t79 -23.5t85 -55.5q43 -38 59 -96q10 -34 10 -65q0 -23 -5 -44q-16 -61 -66 -84q-23 -11 -49 -11q-35 0 -76 19q-14 6 -19 19.5t1 28t19.5 19.5t27.5 -1q25 -10 44 -10q12 0 21 4q16 8 25 35q3 13 3 27 q0 21 -6 43q-11 38 -38 63q-43 39 -86 50t-125 15q-14 1 -28 1q-28 0 -56 -3q-53 -39 -92 -125q-49 -109 -63 -260q-5 -53 -5 -105q0 -77 11 -151q18 -123 63 -190q53 -33 113 -45q41 -9 79 -9q92 0 165 54q110 81 110 251q0 17 11.5 28t25.5 11t25.5 -11t11.5 -25 q0 -209 -141 -314q-92 -68 -207 -68q-47 0 -97 11q-177 38 -293 200q-101 140 -100 347q0 32 2 65zM170 604q-2 -31 -2 -61q0 -240 151 -379q-44 121 -44 276q0 59 6 123q16 160 67 275q25 53 55 90q-102 -31 -163.5 -115t-69.5 -209z" />
<glyph unicode="d" horiz-adv-x="1245" d="M111 457q-1 15 -1 29q0 153 58 278q68 158 190 221q67 35 141 35q82 0 173 -43q80 -37 184 -121q2 156 2 217v27v51q0 33 2 57v78h-4q-31 0 -88 -4q-41 -2 -59 -4q-35 -2 -57.5 -3t-26.5 -1q-14 0 -26.5 10t-12.5 24.5t10.5 27t24.5 12.5q4 0 26.5 1t57.5 3q18 2 59 4 q57 4 88 4q20 2 31 2h8h6h2q8 0 16 -6q6 -4 9.5 -9.5t5.5 -9.5v-2q2 -2 2 -6v-4v-8q2 -10 2 -29v-80q-2 -25 -2 -57v-51v-27q0 -14 -2 -285q4 -12 0 -24v-71q0 -241 12 -402v-55v-35v-51q0 -53 2 -82v-11h17q33 -2 90 -2q37 2 93 3t62 1q14 0 25.5 -11t11.5 -25.5t-11 -25.5 t-26 -11q-6 0 -61 -1t-94 -3q-57 0 -93 2q-23 0 -36 2q-8 2 -15 2q-12 4 -20 10q-10 10 -13 25q-2 4 -2 12q-2 12 -2 31q-2 29 -2 84v10q-66 -66 -155 -109q-80 -39 -164 -39q-59 0 -121 19q-158 47 -233 149q-80 106 -84 277zM184 458q4 -148 68 -233q47 -63 123 -98 q-59 121 -70 223q-1 9 -1 20q0 50 16 136q18 104 51 205q39 115 84 184q20 31 41 51q-55 -2 -105 -26q-98 -51 -155 -185q-52 -121 -52 -259v-18zM346 354q10 -115 88 -248l15 -6q50 -15 98 -15q69 0 133 32q113 55 174 141q6 6 14 10v19q-12 159 -12 402v71 q-137 113 -217 151q-43 20 -82 29q-33 -16 -68 -68q-43 -63 -79 -176q-33 -98 -50 -196q-15 -80 -15 -127q0 -10 1 -19z" />
<glyph unicode="e" horiz-adv-x="983" d="M63 555q0 14 11.5 25.5t25.5 11.5h9q2 4 5 33.5t4 39t5 37t8 41.5l10 37q6 23 14.5 40.5t18.5 33.5q70 119 206 167q77 27 155 27q61 0 121 -16q140 -37 218 -145q35 -45 78 -178q20 -63 27 -109q4 -29 2 -47q-2 -31 -20 -47q-18 -18 -68 -27q-37 -6 -96 -6 q-96 0 -260 10q-80 7 -215 19q-44 -169 -44 -293q0 -15 1 -29q55 -61 141 -94q53 -24 109 -24q19 0 39 2q76 12 140 45.5t104 97t40 137.5q0 14 11 25.5t25.5 11.5t26 -11.5t11.5 -25.5q0 -78 -34 -145.5t-88 -111.5q-54 -43 -124 -71q-65 -26 -134 -26h-10q-74 2 -145 26 q-159 66 -227 198q-62 121 -62 276v28h-2q-14 0 -25.5 11.5t-11.5 25.5zM176 514v-27q0 -152 62 -254q6 123 43 273h-11q-63 6 -94 8zM182 588q35 -4 94 -8l23 -2l25 75q57 164 131 260q26 35 53 58q-84 -4 -156.5 -44t-115.5 -110q-4 -10 -10.5 -21.5t-10.5 -25.5l-6 -20 q-4 -10 -7 -26.5t-5 -25t-4.5 -29t-3.5 -26.5t-3 -28.5t-4 -26.5zM342 573l201 -16q160 -10 252 -10q55 0 86 6q20 2 26 4v2q2 12 0 31q-6 39 -24 96q-39 119 -66 156q-84 113 -242 129q-45 -25 -88 -82q-70 -92 -125 -250z" />
<glyph unicode="f" horiz-adv-x="843" d="M12 12q-8 12 0 23l2 4q2 4 6 8l82 113l97 131q43 57 84 106q2 4 6 6q-8 137 -13 259q-4 133 -4 239q-98 0 -174 10q-14 2 -23 14.5t-7 28t14.5 24.5t28.5 7q72 -10 163 -10q0 23 2 43q8 176 41 235q29 55 97.5 97.5t144.5 56.5q38 8 74 8q44 0 84 -11q74 -22 108 -93 q20 -40 20 -82q0 -24 -7 -49q-12 -47 -50 -58q-8 -2 -17 -2q-31 0 -66 29q-10 10 -12.5 25.5t8 26.5t25.5 13.5t28 -8.5q6 -6 12 -10v2q5 17 5 33q0 25 -11 47q-20 41 -70 56q-25 8 -55 8q-29 0 -62 -7q-63 -12 -117.5 -45t-72.5 -69q-25 -47 -33 -207q-2 -16 -2 -35 q211 10 244 10q14 0 25.5 -11t11.5 -25.5t-11.5 -26t-25.5 -11.5q-6 0 -246 -10q0 -106 4 -241q10 -319 39 -596q94 2 205 2q14 0 25.5 -11.5t11.5 -26t-11.5 -25.5t-25.5 -11q-313 0 -545 -12q-31 -2 -37 28zM82 59q111 4 233 9q-12 117 -22 276q-29 -35 -211 -285z" />
<glyph unicode="g" horiz-adv-x="1116" d="M61 371q2 49 23.5 96t60.5 74q37 25 101 34q-12 37 -17 78q-4 35 -4 67q0 91 33 154q61 121 221 156q45 9 87 9q51 0 100 -13q0 6 2 12q16 61 53 103.5t81 57.5t93 19h16q40 0 74 -14q98 -31 125 -102q7 -20 7 -39q0 -65 -81 -121q-12 -8 -27.5 -5t-23.5 15.5t-5 27.5 t15 24q47 32 47 61q0 6 -2 12q-14 37 -77 58q-32 10 -64 10q-38 0 -73 -15q-66 -28 -89 -112q-2 -8 -10 -17q10 -4 18 -10q4 -2 9 -8q70 -47 107.5 -126t39.5 -163q0 -139 -90 -223q-81 -74 -211 -74q-36 0 -76 6q-4 2 -39.5 6.5t-55 7.5t-49.5 12t-50 24q-29 18 -51 53 q-66 -8 -93 -27q-49 -33 -51 -112v-11q0 -67 45 -88q53 -26 150 -26h20h4h13q39 2 117.5 8t115.5 8q19 1 37 1q46 0 82 -4q51 -5 107.5 -24.5t99.5 -62.5t69 -109q27 -72 27 -125q0 -32 -10 -57q-49 -117 -215 -182q-128 -50 -270 -50q-24 0 -48 1q-182 8 -280 94 q-83 73 -83 180q0 46 15 98q27 90 102 158q-47 8 -86 27q-45 23 -67 69q-19 41 -19 90v9zM201 -2q-11 -39 -11 -74q0 -78 58 -129q43 -37 112 -57q-24 49 -24 114v5v8q0 94 47 190q35 72 82 119q-59 -4 -96 -6h-11q-53 -20 -97 -67.5t-60 -102.5zM303 664q12 -115 68 -150 q14 -8 35.5 -15t36 -9.5t47 -6.5t47.5 -6q28 -4 57 -6q51 74 62 170q3 23 3 46q0 72 -27 139q-36 89 -118 132l-2 3q-8 0 -16 -3q-127 -29 -172 -116q-25 -49 -25 -119q0 -28 4 -59zM377 -143q0 -86 43 -131q31 -6 63 -7q20 -1 40 -1q130 0 247 46q137 53 172 142q6 14 6 34 q0 36 -22 91q-31 82 -93.5 115.5t-156.5 37.5q-10 -10 -25 -4q-4 2 -6 4h-43q-26 -2 -61 -4l-13 -8q-63 -41 -108 -133q-43 -88 -43 -174v-8zM582 963q68 -55 96 -145q21 -65 21 -131q0 -24 -3 -48q-10 -90 -53 -164q72 8 117 51q67 58 67 162q0 111 -69 194q-67 81 -176 81 z" />
<glyph unicode="h" horiz-adv-x="1263" d="M-28 23.5q-3 15.5 5.5 27.5t22.5 17q104 22 250 22h35q-29 524 -29 891q0 23 -1 62.5t-1 52.5q0 72 4 121l14 67q4 16 4 27h-8q-10 1 -22 1q-24 0 -58 -3q-25 -2 -88 -9q-49 -6 -63 -6t-25.5 11.5t-11.5 26t11.5 25.5t25.5 11q10 0 55 4q66 8 90 10q37 3 64 3q13 0 24 -1 q23 0 37 -4q29 -6 37 -28q8 -16 6 -43q0 -16 -6 -41q-2 -10 -4 -23l-6 -22q-2 -8 -2 -15q-4 -45 -4 -110q0 -14 1 -54t1 -63q0 -76 2 -156q59 86 117 125q109 72 260 76h9q139 0 216 -125q59 -98 80 -276q9 -115 9 -191v-15q-1 -79 -6 -191.5t-5 -139.5v-6q184 4 213 4 q14 0 25.5 -11.5t11.5 -25.5t-11.5 -25.5t-25.5 -11.5q-45 0 -159 -3q-68 -2 -127 -2q-39 0 -73 1q-82 0 -161 10q-16 2 -25.5 14.5t-7.5 28t14.5 24.5t26.5 7q94 -12 225 -12v8q0 33 5 143.5t6 185.5v14q0 72 -9 185q-2 31 -8 58q-48 64 -144 82q-37 7 -75 7 q-58 0 -117 -18q-111 -31 -182.5 -99t-71.5 -154q0 -4 -2 -9q6 -176 18 -395q117 -2 150 -2q14 0 25.5 -11.5t11.5 -25.5t-11.5 -25.5t-25.5 -11.5q-23 0 -176 4q-2 -2 -6 -2q-6 0 -13 2h-28q-163 0 -269 -22q-16 -2 -28.5 6t-15.5 23.5zM334 707q0 -45 2 -93 q74 123 250 170q59 18 125 18q25 0 51 -2q94 -10 156 -57q-18 72 -48 119q-56 90 -157 90h-4q-129 -4 -220 -63q-29 -18 -50 -42t-51 -68t-44 -62q-4 -6 -10 -10z" />
<glyph unicode="i" horiz-adv-x="608" d="M10 29.5q-2 15.5 8.5 27t26.5 13.5q57 4 125 6q-6 6 -6 14q0 82 -19 264q-5 45 -5 112q0 80 7 193q4 76 4 136q0 75 -6 127q-26 -1 -46 -1q-40 0 -58 3q-16 4 -24.5 16t-5.5 27.5t15.5 23.5t26.5 6q9 -2 42 -2t91 2h78q45 -2 64 -12q39 -23 43 -82q0 -10 -2 -63 q-3 -60 -3 -135q0 -113 7 -261q14 -287 14 -370q125 -4 182 -4q14 0 25.5 -11.5t11.5 -26t-11 -25.5t-26 -11q-39 0 -82 1t-97 2t-83 3h-60q-116 0 -198 -6q-14 -2 -25.5 8t-13.5 25.5zM186 358q18 -203 19 -268q0 -8 -6 -14h110l4 -2q0 80 -14 368q-7 149 -7 264 q0 77 3 138q2 49 2 55q-2 18 -6 21q-6 2 -29.5 3t-73.5 1h-2q6 -52 6 -129q0 -61 -4 -138q-6 -117 -6 -196q0 -64 4 -103zM217 1228.5q-4 14.5 2 28.5q27 47 66 50h8q32 0 55 -29q20 -23 27 -53q2 -10 2 -19q0 -30 -21 -47q-27 -25 -57 -20q-29 4 -47 30q-13 17 -19 37 q-12 8 -16 22.5z" />
<glyph unicode="j" horiz-adv-x="393" d="M-209 -176q8 41 39 65q27 27 67 27h5q43 -2 80 -33q10 -10 12 -25.5t-8.5 -26.5t-25.5 -13t-28 8q-31 29 -55 8q-16 -14 -16 -34q0 -14 8 -31q20 -53 69 -79q42 -23 93 -23q8 0 17 1q61 4 116 33t82 72q59 98 59 417q0 68 -8 259q-2 72 -2 116q-47 113 -120 207t-161 141 q-14 8 -10 25q-2 14 6.5 26.5t24.5 16.5q8 2 59 6l107 12l100 11l33 2l10 2h2h2q16 -2 23 -6q27 -18 20 -56q0 -4 -2 -14l-2 -6q-8 -61 -18 -270q-1 -20 -1 -50q0 -60 3 -159q8 -193 8 -260q0 -342 -72 -457q-37 -61 -107.5 -99t-148.5 -43h-16q-73 0 -135 32 q-68 36 -101 114q-11 29 -11 56q0 14 3 28zM92 913q119 -90 203 -251v4q10 209 18 270h-4l-102 -10l-105 -13h-10zM244 1245q-2 16 8 27.5t24 13.5q9 0 15 -2q29 23 51 -4q25 -29 25 -57q0 -45 -37 -58q-10 -3 -18 -3q-23 0 -40 20q-24 26 -28 63zM348 1014h2h-2z" />
<glyph unicode="k" horiz-adv-x="1253" d="M-5 11.5q-3 15.5 4 28.5t21 15q72 20 173 23q0 137 -21 340q-4 39 -12 110l-15 127q-6 57 -10 109q-6 63 -8 241.5t-18 272.5q-45 -4 -58 -6q-16 -4 -29.5 3t-16.5 22.5t4 28.5t22 15q37 10 135 17q47 2 80 2q18 0 33 -2q18 -2 28 -8q20 -10 31 -37q6 -16 8 -43 q3 -25 3 -59q0 -17 -1 -37q-2 -37 -8 -101q-4 -53 -4 -63q0 -242 24 -545q92 82 222 217l227 242q-45 2 -128 7t-91 5q-14 0 -24.5 12.5t-10.5 26.5t12.5 24.5t26.5 10.5q25 -2 89.5 -5.5t93 -5.5t85 -4t93 -2t83.5 2t90 6q16 2 27.5 -8t13.5 -25.5t-8 -26.5t-24 -13 q-87 -8 -193 -8h-43q-2 -8 -8 -17q-4 -4 -258 -272l-35 -37q14 -10 27.5 -24.5t19.5 -24.5l21 -25l20 -26q84 -106 359 -426q113 2 167 2q14 0 25.5 -11.5t11.5 -26t-11 -25.5t-26 -11q-50 0 -166 -3q-87 -2 -160 -2h-47q-91 1 -171 9q-14 2 -24.5 13.5t-8.5 26.5t13.5 25.5 t27.5 8.5q82 -9 194 -9q37 0 78 1q-229 266 -319 383l-23 28q-14 18 -19 25.5t-16.5 18.5t-25.5 20q-96 -98 -180 -168q10 -119 28 -297v-4q59 -2 94 -2q14 0 25.5 -11.5t11.5 -26t-11 -25.5t-26 -11q-43 0 -144 5q-63 3 -115 3q-31 0 -58 -1q-72 -3 -131 -17 q-16 -4 -29.5 3t-16.5 22.5zM150 1282q16 -96 19 -277.5t7 -236.5q4 -51 10.5 -109.5t14.5 -128t10 -108.5q22 -205 22 -344q37 0 89 -2q-59 590 -60 934q0 14 4 69q6 63 8 97q1 18 1 34q0 32 -3 54q0 12 -2 20h-2q-8 2 -24 2q-29 0 -74 -2q-10 0 -20 -2z" />
<glyph unicode="l" horiz-adv-x="608" d="M-35 32.5q0 14.5 11.5 26t25.5 11.5h168q2 25 10 163q3 62 3 111t-3 86q-33 395 -35 856l-43 -4q-20 -2 -36.5 -4t-20.5 -2q-16 -2 -27.5 8t-13.5 25.5t8.5 27t24.5 13.5q137 14 145 14q55 6 88 6h37q20 -2 33 -8q18 -10 25 -39q2 -14 4 -37q1 -11 1 -25q0 -27 -3 -65 q0 -33 -5 -94q-4 -49 -4 -58q0 -84 -7 -303q-5 -170 -5 -309v-76q2 -166 23 -286q109 2 198 6q14 0 26.5 -10.5t12.5 -24.5t-10 -26.5t-25 -12.5q-113 -6 -569 -6q-14 0 -25.5 11t-11.5 25.5zM186 1290q2 -489 35 -856q3 -39 3 -90.5t-3 -114.5q-8 -137 -10 -159h82 q-19 126 -21 294q-1 42 0 87q0 137 6 299q8 218 7 294q0 10 4 62q4 61 4 92q3 37 3 63q0 13 -1 23v12h-23q-31 0 -84 -6h-2z" />
<glyph unicode="m" horiz-adv-x="1859" d="M16 953.5q-2 15.5 7.5 27.5t23.5 14q43 6 123 13q45 4 76 4q16 0 28 -2q18 0 29 -6q33 -16 45 -56q7 -21 7 -52q0 -21 -3 -46q-2 -12 -4 -28.5t-2 -20.5q49 88 103 135q86 72 227 72q154 0 221 -93q29 -43 49 -129q14 47 37 82q39 68 119 109t168 49q14 1 27 1 q77 1 144 -29q79 -34 113 -119q35 -88 55.5 -186.5t22.5 -219.5q1 -81 1 -138v-51q-1 -68 -9 -204q106 2 193 10q16 2 27 -8t13.5 -25.5t-8 -27t-24.5 -13.5q-86 -8 -250 -8q-117 0 -275 4q-16 0 -26 11.5t-10 27t11 25.5t25 10q205 -6 250 -6q8 130 10 198q1 24 1 54 q-1 54 -3 126q-4 112 -18 199q-84 103 -232 115q-17 1 -32 2q-127 0 -221 -80q-41 -35 -68 -92q-6 -51 -6 -115q-1 -27 -1 -59q0 -66 3 -156q4 -135 4 -166v-4q2 -4 4 -14t2 -18q30 -1 57 -1q67 0 113 7q14 2 27.5 -7.5t15.5 -23.5t-7 -27.5t-23 -15.5q-41 -7 -121 -7 q-54 0 -125 3q-38 2 -70 2q-98 0 -153 -14q-16 -4 -29.5 3t-17 22.5t4 28.5t21.5 15q72 20 180 20q19 0 39 -1v14v8q-2 33 -3 70v25q0 26 1 56q2 44 2 64q0 162 -6 267q-37 70 -84 96q-67 37 -143 39h-10q-70 0 -130 -26q-64 -28 -112.5 -85t-61.5 -131q-2 -14 -18 -16 q0 -217 20 -363q201 6 234 6q14 0 25.5 -11t11.5 -25.5t-11.5 -25.5t-25.5 -11q-49 1 -163 -5q-96 -5 -176 -5h-28q-90 1 -168 14q-14 2 -23 14t-7 27.5t14 24.5t29 7q79 -12 184 -12h31q-10 78 -15.5 173t-5.5 163t2 179.5t2 162.5q0 8 9 88q3 24 3 41t-3 27q-2 8 -9 12 q0 2 -2 2h-22q-27 0 -70 -4q-78 -6 -117 -12q-16 -2 -28.5 7t-14.5 24.5zM342 557q60 135 210 181q58 18 113 18q88 0 171 -45q30 -18 55 -45q-18 156 -55 204q-45 64 -160 64h-2q-113 0 -176 -55q-10 -8 -19.5 -18.5t-17.5 -18.5t-17.5 -22.5t-14.5 -21.5t-15 -26l-13 -24 l-12 -27l-12 -25q-2 -4 -12.5 -27.5t-12.5 -25.5q-2 -8 -10 -14v-31v-41zM999 696q14 16 31 31q102 86 246 88h7q140 0 241 -84q-14 63 -39 119q-23 56 -79 82q-46 22 -103 21q-13 0 -27 -1q-74 -6 -137.5 -39.5t-94.5 -81.5q-29 -49 -45 -135z" />
<glyph unicode="n" horiz-adv-x="1275" d="M-23 49q0 14 11.5 25.5t25.5 11.5q86 0 291 6q-23 139 -26 195q0 4 10 356q4 137 4 205q1 22 1 40t-1 30v12q-6 2 -14 2q-18 3 -45 3q-13 0 -29 -1l-84 -6q-55 -4 -62 -4q-14 0 -25 11t-11 25.5t11 25.5t25 11q10 0 56 4q55 4 86 7q18 1 33 1q31 0 53 -3q20 -2 37 -9 q25 -8 34 -26q4 -10 7 -25q2 -10 2 -26q1 -12 1 -30t-1 -40q31 59 67 96q55 54 139 76q58 16 117 16q26 0 53 -4q90 -12 161 -57t100 -123q39 -106 48 -228q5 -63 4 -144q0 -76 -4 -168q-8 -190 -8 -226q0 -4 -2 -10q117 6 183 28q14 4 27.5 -2t18.5 -20t-1 -27.5t-21 -19.5 q-35 -12 -84 -19.5t-88 -11.5q-31 -3 -79 -3h-26q-66 1 -93 2t-97.5 5t-76.5 4q-14 0 -24.5 11.5t-10.5 27t11 25.5t28 10q215 -10 264 -10q-2 4 -2 10q0 63 6 188q5 107 5 196v28q-1 100 -13 184q-76 84 -169 110q-44 12 -84 13q-46 0 -89 -16q-92 -29 -166 -112t-105 -202 q-4 -116 -5 -162q0 -16 1 -24q4 -49 29 -197q92 2 160 2q14 0 25.5 -11t11.5 -25.5t-11.5 -25.5t-25.5 -11q-88 0 -263.5 -5.5t-263.5 -5.5q-14 0 -25.5 11.5t-11.5 25.5zM360 602q90 174 254 227q57 19 112 19q121 0 230 -94q-10 39 -22 75q-18 53 -72.5 87t-128.5 45 q-23 3 -45 3q-48 0 -94 -12q-68 -18 -107 -59q-27 -27 -45 -58.5t-39.5 -86t-33.5 -78.5q-2 -4 -7 -11v-18z" />
<glyph unicode="o" horiz-adv-x="974" d="M92 647q24 158 113 264q16 18 42.5 35t46 25t49.5 17t40 13q61 25 86 29q8 20 31 23h19q110 1 207 -63q105 -70 168.5 -177.5t76.5 -224.5q3 -29 3 -59q0 -71 -16 -145q-24 -106 -77 -191q-59 -93 -147 -147q-84 -53 -186 -52h-7q-164 4 -273.5 104.5t-154.5 253.5 q-29 89 -29 186q-1 53 8 109zM164 636q-8 -48 -7 -96q0 -86 25 -167q35 -113 107 -191.5t176 -103.5q-121 182 -145 382q-6 46 -6 92q0 156 63 320q12 31 29 60q-16 -6 -44 -15.5t-41.5 -14.5t-31 -15t-27.5 -25q-76 -90 -98 -226zM362 448q28 -198 158 -378q10 -2 21 -2h8 q163 0 268 165q47 76 68 168q16 62 16 122q0 29 -4 57q-14 133 -102 246.5t-207 144.5q-13 -10 -29 -8q-14 2 -28 2q-26 0 -52 -7q-37 -35 -65 -102q-59 -156 -59 -304q0 -52 7 -104z" />
<glyph unicode="p" horiz-adv-x="1081" d="M-12 955.5q2 15.5 13 25.5t28 8q8 0 59 -2h107h100h35q8 0 12 -2h6q10 -2 19 -10q10 -8 14 -25q0 -6 2 -16v-27q76 82 190 117q57 21 120 21q41 0 84 -9q110 -22 177 -108q86 -104 115 -266q13 -71 13 -139q0 -86 -21 -167q-37 -162 -141 -265q-101 -99 -257 -99h-12 q-147 4 -280 131q4 -266 4 -410q18 0 88 4l104 7q16 0 27.5 -10.5t11.5 -26t-10 -26.5t-25 -11l-127 -6q-90 -6 -141 -8q-36 -2 -86 -2h-41q-76 1 -139 8q-14 2 -24.5 13t-8.5 26.5t13.5 25.5t27.5 8q71 -8 161 -8q45 0 95 2q0 147 -5 453.5t-5 466.5q0 12 4 65q8 84 8 105 q6 63 6 100v14h-14h-100h-107q-53 2 -68 2q-14 2 -24 13.5t-8 27zM365 629q0 -152 4 -404q8 -4 16 -10q125 -147 266 -149h9q86 0 155 38q57 136 57 289q0 51 -6 103q-26 211 -135 372q-29 41 -49 63t-51 34q-18 -4 -35 -11q-86 -27 -147.5 -87t-73.5 -136l-4 -8l-2 -35 q-4 -51 -4 -59zM700 971q27 -23 64 -78q106 -156 138 -357q12 -72 12 -141q0 -124 -37 -241q80 80 112 219q17 74 17 152q0 61 -10 123q-25 143 -99 235q-72 88 -197 88z" />
<glyph unicode="q" horiz-adv-x="1193" d="M94 528v17q0 118 53 237q61 133 195 192q86 38 176 38q48 0 98 -12q140 -31 228 -140q0 57 -4 105v4q-2 10 -4 14q-4 33 18.5 51.5t52.5 5.5q10 -2 13 -4h2q87 -10 126 -10h11q14 0 26.5 -10t12.5 -24.5t-10.5 -27t-24.5 -12.5h-12q-44 0 -138 11q2 -10 9 -277 q1 -40 1 -156t-1 -307v-63q0 -245 14 -396v-12q29 0 104.5 -1t114.5 -1q14 0 25.5 -11t11.5 -25.5t-11.5 -26t-25.5 -11.5q-43 0 -132 1t-141.5 1t-126 -3t-134.5 -9q-16 -2 -27.5 8.5t-13.5 25.5t8 26.5t24 13.5q106 10 250 12v4q-14 158 -14 381q-123 -139 -275 -149 q-12 -1 -23 -1q-147 0 -271 117q-82 76 -131.5 186.5t-53.5 237.5zM174 458q23 -142 111 -251q-6 31 -11 65q-6 51 -6 104q0 98 19 204q31 176 96 278q29 43 61 70q-164 -33 -231 -178q-45 -110 -45 -215q0 -39 6 -77zM315 276q8 -86 33 -135q95 -81 200 -81q9 0 19 1 q143 10 256 166q10 10 25 15q1 178 1 289t-1 155v31q-6 6 -10 12q-33 82 -100.5 133t-151.5 68q-9 -8 -19 -6q-11 2 -22 2q-71 0 -127 -90q-61 -96 -90 -263q-19 -103 -19 -197q0 -51 6 -100z" />
<glyph unicode="r" horiz-adv-x="954" d="M10 954.5q0 14.5 11.5 25.5t25.5 11q8 0 27.5 1t49.5 3t52 2q49 2 78 2q18 0 31 -2q20 0 30 -6q29 -16 41 -59q6 -16 6 -37q45 55 99 86q85 47 186 47q35 0 72 -6q160 -27 213 -150q20 -43 21 -94v-5q0 -48 -17 -89q-20 -51 -66 -70q-19 -7 -40 -7q-34 0 -72 18 q-12 6 -17.5 20t1 27.5t20.5 18.5t29 -1q33 -14 51 -6q16 6 26 29q13 30 13 62q0 34 -15 69q-39 86 -159 104q-31 5 -59 5q-82 0 -150 -38q-74 -41 -146 -176q-2 -6 -6 -10q-2 -10 -2 -18q-5 -186 -5 -324q0 -185 9 -285h318q14 0 25 -11t11 -25.5t-11 -25.5t-25 -11h-101 h-106q-33 0 -97.5 -1t-107.5 -3t-97.5 -7.5t-99.5 -11.5q-16 -2 -28.5 7.5t-14.5 24.5t7.5 27.5t23.5 14.5q57 8 117 12q0 47 3 135t3 117q1 51 1 97q0 115 -7 198q-12 132 -12 211q0 44 4 72q-102 -4 -107 -4q-14 0 -25.5 11t-11.5 25.5zM195 924q-4 -26 -4 -69 q0 -78 12 -212q7 -85 7 -202q0 -47 -1 -99q0 -29 -3 -115t-3 -131q35 2 71 2q-9 102 -9 287q0 139 5 326q0 14 15 112q6 34 6 57q0 19 -4 31l-6 13q0 2 -2 2h-25q-22 0 -59 -2z" />
<glyph unicode="s" horiz-adv-x="882" d="M119 375v14v8q0 4 2 9q2 8 6 12q14 18 37 14q14 -4 24 -18q2 -4 4.5 -9.5t4.5 -13.5q2 -10 6 -29q0 -6 1 -12t2 -11t1 -9t2 -6v-2q12 -80 55 -144q33 -48 114 -72q61 -18 131 -18q23 0 46 2q2 4 8 6q61 31 90 125q14 43 14 78q0 33 -12 59q-18 43 -77 84q-14 10 -56 37 l-35 25l-41 8q-152 31 -210 70q-77 55 -77 154q0 26 5 55q16 86 77.5 147t145.5 90q64 26 137 26q14 0 29 -1q92 -8 162 -56q12 -8 24 -20q-4 37 -14 65q-4 14 2 27.5t20.5 19t28 -1t19.5 -20.5q20 -55 24 -147q0 -18 1 -53.5t1 -51.5l2 -10q14 -51 17 -96q2 -20 0 -35 q0 -10 -4 -19q-6 -18 -25 -24q-25 -8 -41 12q-4 4 -6 10q-2 4 -3 9.5t-3 13.5q0 14 -4 39q0 16 -4 59q0 12 -2 31q-29 102 -74 131q-47 33 -111 41q-76 -8 -121 -115q-24 -56 -30 -118q-2 -20 -3 -36q0 -38 9 -65q12 -31 37 -57l4 -2q176 -33 233 -56q133 -49 170 -157 q19 -56 19 -104q0 -29 -7 -56q-23 -88 -112 -137q-88 -49 -201 -58q-27 -3 -54 -3q-77 -1 -149 21q-98 28 -147 93v-119q0 -14 -11.5 -25.5t-25.5 -11.5t-25.5 11.5t-11.5 25.5q0 170 -8 258q0 2 -1 11.5t-2 25.5t-3 29q-2 27 -4 43zM238 778q-4 -22 -4 -41q0 -63 45 -94 q36 -27 116 -45q-10 14 -14 33q-12 36 -12 82q0 17 2 35q6 68 32 131q27 59 66 96q-31 -6 -57 -17q-70 -23 -117 -70.5t-57 -109.5zM592 483l8 -6q70 -49 92 -102q17 -36 17 -79q0 -40 -15 -87q-23 -68 -57 -107q143 37 168 129q4 16 4 34q0 36 -16 81q-27 76 -127 115 q-31 12 -74 22z" />
<glyph unicode="t" horiz-adv-x="768" d="M-31 936q0 14 11.5 25.5t25.5 11.5h107h108v35v28v25q0 23 2 65q4 45 4 64v15q0 57 -14 89q-6 14 -1 28.5t18.5 21t27.5 1t21 -17.5q23 -45 23 -113q0 -13 -1 -26q0 -20 -4 -68q-2 -39 -2 -59v-39v-49q195 2 334 16q16 2 27.5 -8t13.5 -25.5t-8.5 -26.5t-24.5 -14 q-143 -14 -342 -16q2 -195 6 -346q4 -125 12 -215q8 -47 25 -74q56 -83 153 -83q18 0 37 3q86 14 156 74q9 36 9 70q0 49 -19 94q-4 14 1 28.5t19.5 19.5t28.5 0t20 -19q22 -66 21 -128q0 -49 -12 -95q-30 -106 -111 -181q-82 -78 -174 -80h-4q-103 0 -172 101 q-16 25 -27 75q-10 45 -18 113q-12 113 -19 295q-4 152 -6 348h-108h-107q-14 0 -25.5 11.5t-11.5 25.5zM326 215q4 -33 10 -55q8 -39 16 -51q46 -68 109 -68h4q63 2 127 61q38 37 65 86q-59 -35 -122 -43q-23 -4 -45 -4q-99 0 -164 74z" />
<glyph unicode="u" horiz-adv-x="1198" d="M-16 972.5q2 14.5 15.5 24t27.5 7.5q16 -4 137 -5h82q20 -2 33 -4q20 -2 30 -8q31 -18 37 -69q2 -12 2 -28q0 -23 -4 -52q-2 -29 -10 -78q-6 -43 -6 -51q-2 -12 -2 -33q6 -166 98 -289q40 -53 106 -79q57 -22 122 -21h20q74 2 139.5 33.5t103.5 82.5q2 2 3 5 q24 109 24 239v10q0 6 1 39t1 58.5t-2 66.5q-2 57 -8 88q-4 16 -8 25q-17 5 -50 5q-17 0 -38 -1q-12 0 -64 -4q-37 -4 -55 -4q-14 0 -25.5 11t-11.5 25.5t11.5 26t25.5 11.5t49 4q51 4 66 4q21 1 39 1q58 0 88 -14q20 -8 32 -34q8 -16 13 -41q8 -37 10 -99v-168 q0 -180 -39 -321q-6 -63 -8 -137q-2 -63 -2 -90q2 -16 2 -27q4 0 10 -2q23 -2 63 -2q31 0 73 1t44 1q14 0 25.5 -11.5t11.5 -25.5t-11 -25.5t-26 -11.5q-2 0 -45 -1t-72 -1q-45 0 -71 4q-18 2 -31 4q-23 8 -33 21q-8 12 -10 35q-2 16 -4 38v41q-116 -170 -324 -170 q-41 0 -86 7q-203 29 -237 319q-4 41 -6 86q-1 22 -1 46.5t1 51.5l2 78q2 27 8 86l4 62q0 12 8 57l10 74q1 20 1 36.5t-1 28.5q0 8 -2 13h-2q-10 2 -26 4h-78q-127 0 -150 4q-14 2 -23 15t-7 27.5zM313 508q-1 -32 -1 -62q0 -75 7 -135q29 -233 177 -254q37 -5 71 -6 q190 0 285 168q27 48 45 107q-92 -74 -223 -80h-21q-73 0 -139 24q-76 28 -123 92q-51 68 -78 146z" />
<glyph unicode="v" horiz-adv-x="1200" d="M-71 972.5q3 14.5 15.5 24t26.5 7.5q94 -20 252 -20h43q189 3 285 38q14 4 27.5 -2t18.5 -20.5t-1 -28t-21 -19.5q-70 -25 -184 -37q25 -33 62 -108q39 -82 94 -217l131 -334l6 20q23 84 91.5 301.5t101.5 337.5q-115 -4 -209 -4q-14 0 -25.5 11.5t-11.5 26t11.5 25.5 t25.5 11q143 0 491 19q14 0 26.5 -10.5t12.5 -25t-10 -26.5t-25 -12q-174 -8 -211 -10q-33 -127 -104.5 -356.5t-93.5 -307.5q-23 -74 -43 -131q-18 -47 -35 -72q-10 -18 -23 -28q-25 -20 -51 -11q-10 4 -18 15q-4 4 -9 12l-16 29q-16 33 -45 96l-121 283q-174 406 -207 460 q-131 4 -227 21q-14 4 -23.5 16t-6.5 26.5zM270 909q41 -84 191 -432l121 -282l41 -86l18 43l16 43l-149 378q-53 133 -92 215q-47 98 -70 119q-2 2 -4 6z" />
<glyph unicode="w" horiz-adv-x="1611" d="M-53 978.5q-4 14.5 3 28t21.5 17.5t28.5 -2q27 -16 100 -21q23 -1 51 -1q49 0 113 4q156 8 299 32q16 2 28.5 -7t14.5 -24.5t-7 -27.5t-24 -14q-115 -18 -239 -29q29 -117 115 -318q94 -217 120 -294q31 102 82.5 291.5t69.5 252.5q10 35 18 47q14 20 37 25q20 4 47 -8 q20 -10 37 -37q12 -20 23 -51q16 -49 33 -131q10 -43 24 -133q10 -70 14 -84q14 -53 84 -246q27 -72 45 -111q16 -29 29 -41q4 10 10 29q10 29 23 80l20 82q12 55 17 69q6 25 19.5 64t22.5 69.5t13 61.5l35 166q23 115 33 176q2 4 2 6h-256q-14 0 -25.5 11.5t-11.5 25.5 t11.5 25.5t25.5 11.5h98h115q29 0 93 2t112.5 7t95.5 13q14 2 27.5 -7t15.5 -23.5t-7.5 -27.5t-23.5 -15q-90 -14 -203 -21q6 -8 4 -20q-10 -61 -34.5 -177t-32.5 -165q-6 -33 -16.5 -68t-23.5 -75t-20 -60q-4 -14 -16 -70l-18 -80q-12 -53 -25 -86q-16 -47 -33 -65 q-23 -20 -49 -19q-23 2 -43 19q-23 20 -47 67q-23 43 -51 121q-70 195 -84 250q-6 20 -19 92q-23 127 -22 131q-16 78 -31 121q-8 25 -16 37l-2 4l-4 -12l-56 -207l-67 -242q-31 -111 -64 -207l-10 -36q-10 -41 -21 -68q-14 -43 -28 -68q-10 -16 -23 -26q-20 -18 -47 -10 q-25 6 -31 32q-2 10 0 25q0 2 1.5 6t1.5 6q-8 39 -31 103q-35 90 -41 114q-16 53 -51 133l-60 136q-8 23 -59 194q-33 111 -70 174q-6 10 -6 21q-18 2 -35 2q-92 6 -133 28q-12 8 -16 22.5zM209 928q37 -68 70 -176q45 -158 57 -187q8 -23 57 -135q37 -86 53 -141 q6 -23 39 -109q14 -39 23 -65q8 25 16 57q10 39 13 43l14 41q-31 96 -137 344q-92 215 -121 332q-12 -2 -25 -2q-31 -2 -59 -2z" />
<glyph unicode="x" horiz-adv-x="1267" d="M-25 44q2 15 14.5 24.5t26.5 7.5q47 -6 123 -10q2 4 6 6q139 109 365 362l-43 45q-33 33 -65.5 73t-68.5 90t-59 85l-61 96q-41 63 -55 84q-59 8 -111 23q-14 4 -21.5 17.5t-3 27.5t17.5 21.5t28 2.5q84 -23 206 -26q23 18 48 0q39 0 114.5 1t110.5 1q14 0 25.5 -11.5 t11.5 -25.5t-11.5 -25.5t-25.5 -11.5q-29 0 -88.5 -1t-79.5 -1l37 -59q51 -86 80 -119l129 -154l90 109q8 8 83.5 108.5t125.5 145.5q-121 2 -219 6q-14 0 -24.5 11t-10.5 26.5t11.5 26t27.5 10.5q152 -6 520 -6q14 0 25.5 -11.5t11.5 -26t-11.5 -25.5t-25.5 -11h-205 q-2 -14 -14 -23q-43 -33 -81 -77t-85 -105l-72 -98l-100 -117q225 -262 383 -420q2 -4 4 -6q78 6 155 20q14 2 27.5 -7t16 -23.5t-7 -27.5t-23.5 -15q-172 -28 -319 -28q-141 0 -259 26q-14 4 -22.5 17t-5 27.5t16.5 22.5t28 6q66 -16 141 -20q-131 172 -248 299 q-180 -205 -307 -315h24q176 6 248 30q14 4 27.5 -2t18.5 -20.5t-1 -27.5t-20 -19q-82 -29 -270 -35q-37 -1 -71 -1q-119 0 -200 11q-16 2 -25.5 14.5t-7.5 27.5zM211 903q4 -6 43 -67l47 -74l43 -66q35 -49 53 -73l45 -58q29 -33 54 -57l41 -41l38 43l-137 162 q-31 39 -86 131q-41 68 -65 96q-41 0 -76 4zM588 412q127 -139 272 -334q24 -1 50 -1t53 1q-141 145 -338 377z" />
<glyph unicode="y" horiz-adv-x="1228" d="M-59 -127q26 70 122 70q24 0 52 -4q14 -2 23 -15.5t7 -28t-15 -23.5t-28 -7q-26 4 -44 4q-41 0 -48 -21q-2 -7 -2 -14q0 -30 37 -72q35 -39 85 -62q39 -19 93 -19q15 0 31 1q74 7 147 56q111 74 195 262q-4 4 -6 10q-53 117 -157.5 373t-164.5 387l-16 39q-12 35 -14 39 q-14 41 -27 55h-2q-23 6 -25 6q-12 4 -18 15q-86 0 -156 -2q-16 0 -27.5 10t-11.5 25.5t10.5 26.5t24.5 11q45 2 108 2q78 0 182 -3q189 -5 245 -5q14 0 25.5 -11t11.5 -25.5t-11.5 -26t-25.5 -11.5q-57 0 -140 3q51 -121 109 -297q10 -27 37 -78q33 -61 41 -80 q41 -90 92 -236l10 35q47 147 64 191q18 51 56 145t42 107q47 123 74 208q-18 0 -108.5 1t-139.5 1q-14 0 -25.5 11.5t-11.5 26t11.5 25.5t25.5 11q51 0 159.5 -1t191.5 -1t159 4q14 0 26.5 -10t12.5 -24.5t-10.5 -26.5t-24.5 -12q-84 -4 -191 -5q-29 -98 -81 -235 q-4 -12 -41 -107l-56 -143q-16 -45 -61 -188q-43 -133 -74 -211q-102 -256 -246 -353q-90 -59 -182 -66q-18 -1 -34 -1q-71 0 -124 23q-67 30 -112 81q-57 63 -57 119q0 21 8 41zM287 922q10 -18 20 -48l15 -40l12 -31q59 -131 158 -373l141 -338l26 74q-70 195 -108 280 q-8 16 -41 78q-27 51 -37 84q-63 186 -117 312z" />
<glyph unicode="z" horiz-adv-x="954" d="M86 66l4 20q0 2 2 4q0 2 1 4t3 4l13 15l36 47l115 141q164 201 189 227q45 51 124 121l127 111q43 41 111 119q27 31 43 53q-33 0 -90 2q-162 2 -166 2q-10 0 -29 2q-100 -10 -182 -102q-20 -25 -76 -101q-49 -68 -82 -100q-6 -29 -36 -27q-14 0 -24.5 11.5t-10.5 27.5 q0 8 1 33t2 69t1 72q2 66 2 103q2 23 2 37q0 6 2 12q0 10 4 18q12 23 43 33q20 8 53 12q16 1 35 2q38 0 90 -6q45 -2 125 -12q70 -10 84 -10q2 0 164 -2q66 -2 100 -2q23 0 33 -2h12h4h5q10 -2 18 -13q12 -12 12 -33q-2 -10 -6 -20q-4 -14 -18 -33q-18 -27 -60 -74 q-72 -84 -116 -124q0 -2 -129 -113q-74 -66 -119 -115q-12 -14 -185 -225l-114 -141l-29 -35q14 -4 34 -4q26 0 62 6q14 2 66 10q41 6 63 8q68 4 144 6q195 121 329 322q4 6 13 8q12 10 26.5 10t25.5 -11t11 -25q0 -10 1 -40t2 -74t1 -79q1 -37 1 -65t-1 -48q0 -27 -2 -41 v-14q-2 -6 -4 -10q-4 -10 -14 -19q-18 -12 -47 -8l-8 2q-4 2 -7 2q-194 15 -335 15q-73 0 -132 -4q-18 -2 -55 -9q-53 -8 -67 -10q-38 -5 -68 -5q-43 -1 -71 9q-48 16 -56 56zM233 700q18 23 46 60q59 82 77 102q53 61 109 90q-45 4 -78 9q-43 4 -75 4q-21 0 -38 -2 q-20 -2 -32 -7l-2 -2q0 -12 -2 -32q0 -37 -2 -103q0 -25 -1.5 -69t-1.5 -50zM616 102q104 -2 258 -14h5v14q1 20 1 47.5t-1 63.5q-1 39 -5 145q-111 -152 -258 -256z" />
<glyph unicode="{" horiz-adv-x="796" d="M291 506q0 16 12 29q4 2 6 4q2 0 4 2h4h2v2h5q8 2 14 4q23 6 43 14q27 10 43 21q12 10 14 14q4 12 4 45q-2 8 -3 29.5t-1 31.5q0 37 -16 160q-18 139 -21 205q-6 274 181 309q25 4 53.5 5t65 -1t47.5 -2q23 0 32 -18q16 -6 14 -22.5t-18 -18.5q-10 -14 -28 -14h-29 q-23 -12 -45 -39q-47 -53 -88 -150q-37 -84 -58.5 -175t-21.5 -142v-6q6 -57 6 -91q0 -10 1 -30.5t3 -28.5q0 -45 -8 -72q-10 -29 -45 -51q-14 -10 -35 -20q80 -59 90 -174q6 -70 -4 -217l-6 -64q123 -211 268 -340q6 -4 12 -12q2 -2 3 -6q4 -6 4 -17q0 -14 -11.5 -24.5 t-27.5 -10.5q-160 8 -240 82q-68 66 -80 185q-8 68 4 213q10 141 4 202q-10 106 -92 142l-12 2q-14 0 -25 6q-25 12 -24 39zM475 1067q0 -53 10 -127q25 100 64 193q43 102 94 159q6 8 14 15q-37 2 -63 -4q-68 -12 -94.5 -70.5t-24.5 -165.5zM506 -31q0 -33 4 -59 q8 -92 57 -139q48 -44 140 -58q-106 106 -201 256z" />
<glyph unicode="|" horiz-adv-x="559" d="M446 522q-27 616 7 1002q2 16 13 26.5t26.5 8t25.5 -13.5t8 -25q-33 -383 -6 -994l12 -243q8 -164 12.5 -263.5t8.5 -237.5t4 -255q0 -14 -11 -25.5t-25.5 -11.5t-26 11.5t-11.5 25.5q0 117 -4 255t-8 236.5t-12 260.5z" />
<glyph unicode="}" horiz-adv-x="722" d="M254 1331.5q0 14.5 11.5 25.5t25.5 11q190 0 274 -172q63 -131 49 -324q-2 -33 -18 -94q-14 -51 -16 -78q-4 -72 51 -112q14 -12 45 -27q14 -8 20 -12q20 -14 25 -35q4 -31 -27 -49q-2 -2 -12 -8l-4 -2q-70 -55 -82 -113q-16 -66 -6 -197q16 -209 16 -227 q-2 -131 -55 -205q-68 -92 -221 -108q-33 -2 -39 28q-6 2 -10 7q-12 16 4 28q29 23 53 49.5t40.5 46t35 58.5t27 53t23.5 64.5t17 59.5t18.5 70.5t18.5 67.5l-2 2q-10 143 6 219q20 80 101 146q-20 12 -37 24q-88 66 -80 177q0 12 2 26q-8 141 -57 303q-61 197 -142 260h-18 q-14 0 -25.5 11.5t-11.5 26zM365 -315q86 18 125.5 72.5t41.5 162.5q0 39 -4 94q-29 -106 -64.5 -185t-98.5 -144zM379 1280q63 -82 110 -233q29 -98 48 -201q4 16 4 31q14 174 -41 286q-43 88 -121 117z" />
<glyph unicode="~" horiz-adv-x="1134" d="M221 1227q16 152 152 196q113 39 250 -12q27 -10 78 -32.5t92 -38t77 -21.5q131 -25 193 86q8 12 22.5 16t27.5 -3t17.5 -21.5t-2.5 -28.5q-88 -156 -270 -121q-41 6 -88 23.5t-102 40.5q-53 25 -70 30q-113 43 -201 13q-90 -31 -102 -135q-2 -14 -14.5 -24.5t-26.5 -8.5 t-24.5 14.5t-8.5 26.5z" />
<glyph unicode="&#xad;" d="M51 552q-2 15 7.5 27.5t25.5 14.5q158 20 453 20q14 0 25 -11t11 -25.5t-11 -25.5t-25 -11q-295 0 -445 -21q-14 -2 -26.5 7.5t-14.5 24.5z" />
<glyph unicode="&#x2000;" horiz-adv-x="802" />
<glyph unicode="&#x2001;" horiz-adv-x="1604" />
<glyph unicode="&#x2002;" horiz-adv-x="802" />
<glyph unicode="&#x2003;" horiz-adv-x="1604" />
<glyph unicode="&#x2004;" horiz-adv-x="534" />
<glyph unicode="&#x2005;" horiz-adv-x="401" />
<glyph unicode="&#x2006;" horiz-adv-x="267" />
<glyph unicode="&#x2007;" horiz-adv-x="267" />
<glyph unicode="&#x2008;" horiz-adv-x="200" />
<glyph unicode="&#x2009;" horiz-adv-x="320" />
<glyph unicode="&#x200a;" horiz-adv-x="89" />
<glyph unicode="&#x2010;" d="M51 552q-2 15 7.5 27.5t25.5 14.5q158 20 453 20q14 0 25 -11t11 -25.5t-11 -25.5t-25 -11q-295 0 -445 -21q-14 -2 -26.5 7.5t-14.5 24.5z" />
<glyph unicode="&#x2011;" d="M51 552q-2 15 7.5 27.5t25.5 14.5q158 20 453 20q14 0 25 -11t11 -25.5t-11 -25.5t-25 -11q-295 0 -445 -21q-14 -2 -26.5 7.5t-14.5 24.5z" />
<glyph unicode="&#x2012;" d="M51 552q-2 15 7.5 27.5t25.5 14.5q158 20 453 20q14 0 25 -11t11 -25.5t-11 -25.5t-25 -11q-295 0 -445 -21q-14 -2 -26.5 7.5t-14.5 24.5z" />
<glyph unicode="&#x2013;" horiz-adv-x="1076" d="M51 552q-4 15 14.5 27.5t49.5 14.5q310 20 888 20q28 0 49.5 -11t21.5 -25.5t-21.5 -25.5t-49.5 -11q-578 0 -872 -21q-27 -2 -51.5 7.5t-28.5 24.5z" />
<glyph unicode="&#x2014;" horiz-adv-x="2100" d="M51.5 552q-7.5 15 29.5 27.5t100 14.5q619 20 1776 20q55 0 98 -11t43 -25.5t-43 -25.5t-98 -11q-1157 0 -1745 -21q-55 -2 -104 7.5t-56.5 24.5z" />
<glyph unicode="&#x2018;" horiz-adv-x="382" d="M128 1015.5q-11 86.5 11 160.5q18 84 63.5 152.5t106.5 96.5q14 6 28.5 1t21 -18t1 -27.5t-17.5 -20.5q-43 -20 -79 -74.5t-52 -126.5q-27 -104 2 -184q14 25 37 41q33 20 67 10q37 -10 56 -53q16 -47 0.5 -83t-51.5 -50q-31 -16 -71 -7t-67 39q-45 57 -56 143.5z" />
<glyph unicode="&#x2019;" horiz-adv-x="387" d="M130 857q-5 13 1.5 27.5t18.5 20.5q45 16 83.5 68.5t61.5 122.5q33 104 10 186q-16 -27 -41 -39q-35 -18 -67 -8q-37 14 -52 57q-14 47 3.5 82t56.5 49q33 12 71.5 1t63.5 -44q41 -59 46 -146t-21 -161q-25 -82 -74 -147.5t-113 -89.5q-14 -4 -28.5 2t-19.5 19z" />
<glyph unicode="&#x201c;" horiz-adv-x="727" d="M128 1015.5q-11 86.5 11 160.5q18 84 63.5 152.5t106.5 96.5q14 6 28.5 1t21 -18t1 -27.5t-17.5 -20.5q-43 -20 -79 -74.5t-52 -126.5q-27 -104 2 -184q14 25 37 41q33 20 67 10q37 -10 56 -53q16 -47 0.5 -83t-51.5 -50q-31 -16 -71 -7t-67 39q-45 57 -56 143.5z M472 1032q-11 86 11 160q18 84 63.5 152.5t106.5 97.5q14 6 28.5 1t21 -18.5t1 -28t-17.5 -20.5q-43 -20 -79 -74.5t-52 -125.5q-27 -104 2 -185q14 25 37 41q33 20 68 10q37 -10 55 -53q16 -47 0.5 -83t-51.5 -50q-31 -16 -71 -7t-67 40q-45 57 -56 143z" />
<glyph unicode="&#x201d;" horiz-adv-x="729" d="M118 870.5q-5 14.5 0 29t19 20.5q45 16 82 69t57 125q31 109 5 193q-16 -33 -45 -50q-33 -20 -66 -6q-33 12 -47 56q-14 45 2 80.5t53 50.5q33 14 72 4t63 -43q45 -57 52.5 -144.5t-17.5 -160.5q-25 -84 -72 -150.5t-110 -93.5q-14 -4 -28.5 1t-19.5 19.5zM480 870.5 q-5 14.5 0.5 29t19.5 20.5q45 16 81.5 69t57.5 125q31 109 4 193q-16 -33 -45 -50q-33 -20 -66 -6q-33 12 -47 56q-14 45 2.5 80.5t53.5 50.5q33 14 71.5 4t63.5 -43q45 -57 52 -144.5t-17 -160.5q-25 -84 -72 -150.5t-111 -93.5q-14 -4 -28.5 1t-19.5 19.5z" />
<glyph unicode="&#x202f;" horiz-adv-x="320" />
<glyph unicode="&#x205f;" horiz-adv-x="401" />
<glyph unicode="&#x25fc;" horiz-adv-x="1013" d="M0 0v1014h1014v-1014h-1014z" />
</font>
</defs>
</svg>
